<svg width="45" height="45" viewBox="0 0 45 45" fill="none" xmlns="http://www.w3.org/2000/svg">
<circle cx="22.5" cy="22.5" r="22.5" fill="white"/>
<path d="M19.6437 30.7821V27.7152C19.6437 26.9381 20.2757 26.3067 21.0584 26.3018H23.9326C24.7189 26.3018 25.3563 26.9346 25.3563 27.7152V30.7732C25.3562 31.4473 25.904 31.9951 26.5829 32H28.5438C29.4596 32.0023 30.3388 31.6428 30.9872 31.0007C31.6356 30.3586 32 29.4868 32 28.5775V19.8658C32 19.1314 31.6721 18.4347 31.1046 17.9635L24.443 12.6743C23.2785 11.7491 21.6154 11.779 20.4854 12.7454L13.967 17.9635C13.3727 18.4208 13.0176 19.1196 13 19.8658V28.5686C13 30.4637 14.5474 32 16.4562 32H18.3723C18.6992 32.0023 19.0135 31.8751 19.2455 31.6464C19.4775 31.4178 19.6079 31.1067 19.6079 30.7821H19.6437Z" fill="#1C1C1C"/>
</svg>
