<svg width="636" height="424" viewBox="0 0 636 424" fill="none" xmlns="http://www.w3.org/2000/svg">
<rect width="636" height="424" fill="black"/>
<rect width="636" height="424" fill="url(#paint0_linear)"/>
<path d="M375.127 339.88C375.094 339.856 374.93 339.399 374.226 336.74C373.197 332.851 373.008 328.833 373.008 328.833L373.166 322.232C373.166 322.232 372.894 316.648 372.522 314.237C372.15 311.826 369.969 311.674 369.969 311.674L368.455 311.706L351.89 314.461C346.914 315.063 336.227 316.284 330.961 315.51C325.695 314.735 320.066 313.239 312.627 314.385L303.047 316.849C298.601 318.361 286.23 321.132 274.784 319.724C263.337 318.316 254.614 315.599 251.054 314C248.495 312.577 241.637 308.465 234.74 303.183C233.13 301.845 228.489 294.575 225.847 291.347L220.27 289.12L210.257 286.851C204.602 285.575 190.77 281.75 184.032 274.461C175.609 265.35 174.853 265.77 168.989 254.281C164.297 245.091 165.011 231.438 165.879 225.686L168.576 213.444L168.5 213.112C166.703 205.321 163.015 189.329 166.187 182.976C170.209 174.921 170.58 165.942 182.227 154.233C191.545 144.866 205.134 137.154 210.764 134.468L214.961 131.343C217.411 127 225.331 116.659 237.411 110.038C249.492 103.418 258.987 100.765 262.224 100.266C268.434 98.8132 283.988 96.5151 296.527 98.9445L318.484 89.6122C323.832 87.6313 337.291 84.136 348.34 86.0019C359.389 87.8679 366.259 89.6841 368.312 90.3589C373.28 92.2368 386.025 99.0297 397.255 111.178C404.334 111.574 420.515 113.343 428.604 117.251C438.715 122.137 440.279 120.905 452.081 132.965C461.522 142.613 464.58 157.144 464.929 163.204C464.807 169.997 462.734 186.146 455.423 196.393L460.915 205.46C464.311 211.05 470.323 225.523 467.206 238.693C464.089 251.863 457.631 261.318 454.792 264.399L447.617 270.374L443.219 276.592L438.577 288.212L430.954 303.266L419.904 318.849L404.705 334.079L396.891 340.404C395.467 341.285 386.981 345.299 381.595 343.749C376.359 342.243 375.13 340.731 375.127 339.88Z" fill="white"/>
<path d="M375.127 339.88C375.094 339.856 374.93 339.399 374.226 336.74C373.197 332.851 373.008 328.833 373.008 328.833L373.166 322.232C373.166 322.232 372.894 316.648 372.522 314.237C372.15 311.826 369.969 311.674 369.969 311.674L368.455 311.706L351.89 314.461C346.914 315.063 336.227 316.284 330.961 315.51C325.695 314.735 320.066 313.239 312.627 314.385L303.047 316.849C298.601 318.361 286.23 321.132 274.784 319.724C263.337 318.316 254.614 315.599 251.054 314C248.495 312.577 241.637 308.465 234.74 303.183C233.13 301.845 228.489 294.575 225.847 291.347L220.27 289.12L210.257 286.851C204.602 285.575 190.77 281.75 184.032 274.461C175.609 265.35 174.853 265.77 168.989 254.281C164.297 245.091 165.011 231.438 165.879 225.686L168.576 213.444L168.5 213.112C166.703 205.321 163.015 189.329 166.187 182.976C170.209 174.921 170.58 165.942 182.227 154.233C191.545 144.866 205.134 137.154 210.764 134.468L214.961 131.343C217.411 127 225.331 116.659 237.411 110.038C249.492 103.418 258.987 100.765 262.224 100.266C268.434 98.8132 283.988 96.5151 296.527 98.9445L318.484 89.6122C323.832 87.6313 337.291 84.136 348.34 86.0019C359.389 87.8679 366.259 89.6841 368.312 90.3589C373.28 92.2368 386.025 99.0297 397.255 111.178C404.334 111.574 420.515 113.343 428.604 117.251C438.715 122.137 440.279 120.905 452.081 132.965C461.522 142.613 464.58 157.144 464.929 163.204C464.807 169.997 462.734 186.146 455.423 196.393L460.915 205.46C464.311 211.05 470.323 225.523 467.206 238.693C464.089 251.863 457.631 261.318 454.792 264.399L447.617 270.374L443.219 276.592L438.577 288.212L430.954 303.266L419.904 318.849L404.705 334.079L396.891 340.404C395.467 341.285 386.981 345.299 381.595 343.749C376.359 342.243 375.13 340.731 375.127 339.88Z" fill="url(#paint1_linear)"/>
<g filter="url(#filter0_d)">
<path d="M268.647 229.426C269.152 231.834 269.121 234.17 268.553 236.435C267.986 238.699 267.029 240.861 265.683 242.921C264.324 244.923 262.635 246.809 260.616 248.581C258.643 250.282 256.486 251.838 254.146 253.248C251.852 254.587 249.433 255.768 246.888 256.792C244.391 257.745 241.938 258.473 239.53 258.978C237.358 259.433 235.295 259.682 233.342 259.723C234.006 248.856 234.072 238.053 233.537 227.314C233.049 216.504 232.461 205.654 231.772 194.764C234.69 193.478 237.745 192.255 240.935 191.096C244.112 189.878 247.463 188.9 250.986 188.162C252.455 187.854 254.048 187.704 255.766 187.711C257.484 187.719 259.117 188.051 260.664 188.708C262.212 189.364 263.586 190.364 264.787 191.706C266.047 193.036 266.923 194.875 267.415 197.224C267.883 199.456 267.938 201.62 267.581 203.718C267.282 205.804 266.712 207.762 265.87 209.594C265.086 211.414 264.084 213.064 262.862 214.547C261.628 215.97 260.309 217.135 258.905 218.043C259.754 218.294 260.67 218.715 261.652 219.306C262.635 219.897 263.589 220.647 264.515 221.556C265.429 222.407 266.239 223.494 266.946 224.817C267.711 226.128 268.278 227.664 268.647 229.426ZM246.555 224.493C246.616 225.952 246.646 227.264 246.645 228.429C246.69 229.523 246.729 230.587 246.762 231.622C246.795 232.658 246.811 233.758 246.81 234.923C246.856 236.017 246.915 237.322 246.988 238.84C248.079 238.488 249.298 238.018 250.646 237.429C251.994 236.84 253.252 236.117 254.421 235.259C255.578 234.342 256.492 233.292 257.163 232.109C257.823 230.867 257.999 229.512 257.691 228.044C257.469 226.987 256.991 226.168 256.256 225.586C255.58 224.993 254.752 224.553 253.773 224.268C252.852 223.97 251.874 223.838 250.839 223.871C249.791 223.846 248.827 223.925 247.946 224.11C247.653 224.171 247.389 224.227 247.154 224.276C246.977 224.313 246.778 224.385 246.555 224.493ZM246.051 202.346C246.069 203.016 246.082 203.81 246.091 204.728C246.158 205.634 246.208 206.604 246.241 207.639C246.262 208.616 246.253 209.598 246.215 210.587C246.236 211.564 246.262 212.417 246.292 213.146C247.535 212.64 248.759 212.046 249.965 211.365C251.17 210.683 252.223 210.002 253.123 209.323C254.069 208.573 254.775 207.843 255.239 207.133C255.762 206.41 255.949 205.696 255.801 204.992C255.617 204.111 255.205 203.462 254.566 203.044C253.914 202.567 253.111 202.245 252.156 202.078C251.26 201.898 250.33 201.847 249.366 201.927C248.448 201.935 247.637 202.013 246.932 202.161L246.051 202.346ZM303.19 243.428C301.772 243.97 300.212 244.573 298.512 245.236C296.812 245.899 295.281 246.495 293.921 247.026C293.75 245.038 293.585 243.081 293.426 241.152C293.257 239.471 293.06 237.796 292.832 236.127C292.664 234.446 292.515 233.006 292.387 231.807L284.723 233.413L283.858 246.836C282.603 247.283 281.12 247.808 279.407 248.413C277.682 248.958 276.075 249.479 274.585 249.975C272.755 250.604 270.955 251.226 269.183 251.843C269.895 243.54 270.603 235.361 271.305 227.306C271.58 223.938 271.853 220.417 272.125 216.743C272.456 213.057 272.764 209.406 273.048 205.791C273.379 202.104 273.682 198.577 273.957 195.209C274.232 191.841 274.445 188.762 274.595 185.972C278.527 184.841 282.505 183.639 286.53 182.367C290.613 181.082 294.548 179.675 298.335 178.145C298.552 180.061 298.839 182.453 299.195 185.321C299.598 188.118 300.055 191.179 300.568 194.505C301.082 197.83 301.625 201.303 302.2 204.922C302.775 208.541 303.337 212.101 303.887 215.603C305.292 223.768 306.772 232.439 308.328 241.615C306.628 242.278 304.915 242.882 303.19 243.428ZM284.991 224.161C285.226 224.112 285.637 224.026 286.224 223.903C286.858 223.709 287.498 223.544 288.144 223.409C288.836 223.202 289.476 223.037 290.063 222.914C290.638 222.732 291.037 222.588 291.259 222.48C291.185 222.127 291.092 221.534 290.978 220.699C290.911 219.794 290.796 218.807 290.633 217.737C290.517 216.597 290.382 215.368 290.228 214.052C290.075 212.735 289.928 211.448 289.787 210.19C289.394 207.146 289.011 203.855 288.637 200.316L287.559 192.542L286.256 192.907L285.818 200.907L284.991 224.161ZM343.283 214.15C343.972 217.439 343.954 220.569 343.228 223.541C342.549 226.442 341.326 229.089 339.56 231.483C337.852 233.864 335.64 235.89 332.926 237.563C330.27 239.223 327.268 240.404 323.921 241.105C321.572 241.598 319.094 241.474 316.486 240.733C313.867 239.933 311.181 238.381 308.43 236.076L312.271 221.938C312.842 222.615 313.625 223.278 314.619 223.928C315.602 224.519 316.653 225.004 317.775 225.382C318.955 225.748 320.087 226.031 321.172 226.233C322.302 226.364 323.279 226.343 324.101 226.171C324.806 226.023 325.515 225.752 326.229 225.357C326.944 224.962 327.574 224.462 328.122 223.857C328.669 223.252 329.058 222.618 329.287 221.957C329.563 221.225 329.614 220.448 329.442 219.626C329.147 218.217 328.406 217.023 327.22 216.046C326.081 214.997 324.725 214.086 323.153 213.312C321.568 212.479 319.866 211.671 318.047 210.888C316.228 210.104 314.513 209.238 312.904 208.287C311.354 207.325 309.949 206.179 308.689 204.849C307.43 203.519 306.603 201.915 306.209 200.035C305.569 196.982 305.882 193.943 307.149 190.919C308.415 187.895 310.202 185.16 312.51 182.714C314.864 180.198 317.538 178.044 320.534 176.251C323.53 174.458 326.467 173.26 329.345 172.657C330.93 172.325 332.471 172.216 333.966 172.332C335.449 172.389 336.782 172.753 337.965 173.425C339.195 174.025 340.238 174.91 341.096 176.079C342.013 177.235 342.675 178.783 343.081 180.721C343.253 181.543 343.337 182.383 343.334 183.242C343.388 184.089 343.456 184.995 343.535 185.959L331.538 192.336C331.557 191.841 331.547 191.353 331.507 190.871C331.526 190.376 331.486 189.894 331.388 189.424C331.018 187.663 330.431 186.468 329.625 185.84C328.865 185.141 327.986 184.896 326.988 185.105C326.518 185.204 325.968 185.503 325.337 186.003C324.765 186.491 324.188 187.102 323.607 187.837C323.071 188.501 322.649 189.264 322.339 190.126C322.029 190.988 321.967 191.859 322.151 192.74C322.447 194.149 323.075 195.244 324.035 196.023C325.054 196.79 326.237 197.462 327.584 198.038C328.931 198.614 330.372 199.201 331.907 199.799C333.489 200.325 335.008 201.141 336.466 202.245C337.923 203.35 339.249 204.85 340.444 206.745C341.684 208.569 342.631 211.038 343.283 214.15ZM354.617 234.579C354.614 227.837 354.57 221.194 354.486 214.652C354.461 211.899 354.411 209.028 354.336 206.04C354.262 203.052 354.17 200.128 354.061 197.27C353.999 194.34 353.873 191.547 353.684 188.889C353.541 186.16 353.389 183.679 353.227 181.445C351.839 181.551 350.447 181.782 349.05 182.136C347.712 182.478 346.324 182.585 344.887 182.457C344.749 181.505 344.551 180.412 344.292 179.179C344.034 177.946 343.805 176.707 343.605 175.461C343.381 174.098 343.138 172.647 342.876 171.108C344.428 170.905 345.973 170.674 347.512 170.412C349.051 170.151 350.584 169.86 352.111 169.54C355.106 168.913 357.971 168.251 360.707 167.555C363.489 166.788 366.035 166.07 368.347 165.401C370.706 164.662 373 163.905 375.228 163.132L375.256 168.091C375.246 169.504 375.241 170.945 375.243 172.416C375.304 173.875 375.321 175.128 375.295 176.175C374.077 176.798 372.811 177.34 371.498 177.799C370.23 178.187 368.975 178.634 367.733 179.14C367.74 181.223 367.767 183.546 367.815 186.111C367.85 188.617 367.909 191.241 367.993 193.982C368.124 196.652 368.266 199.381 368.422 202.168C368.577 204.956 368.707 207.626 368.813 210.178C369.092 216.189 369.473 222.393 369.955 228.79L354.617 234.579ZM408.739 221.304C407.32 221.847 405.76 222.45 404.06 223.113C402.36 223.776 400.83 224.372 399.47 224.902C399.298 222.915 399.133 220.958 398.974 219.029C398.806 217.348 398.608 215.673 398.381 214.004C398.212 212.323 398.064 210.883 397.935 209.684L390.271 211.29L389.407 224.713C388.152 225.16 386.668 225.685 384.955 226.289C383.231 226.835 381.623 227.356 380.133 227.852C378.303 228.481 376.503 229.103 374.732 229.72C375.444 221.417 376.151 213.238 376.853 205.183C377.128 201.815 377.402 198.294 377.674 194.62C378.004 190.933 378.312 187.283 378.596 183.667C378.927 179.981 379.23 176.454 379.505 173.086C379.78 169.718 379.993 166.639 380.144 163.849C384.075 162.718 388.053 161.516 392.078 160.244C396.161 158.959 400.096 157.551 403.883 156.022C404.101 157.938 404.387 160.33 404.743 163.198C405.146 165.995 405.603 169.056 406.117 172.382C406.63 175.707 407.174 179.18 407.748 182.799C408.323 186.418 408.885 189.978 409.435 193.48C410.84 201.645 412.321 210.316 413.876 219.492C412.176 220.155 410.463 220.759 408.739 221.304ZM390.539 202.038C390.774 201.989 391.185 201.903 391.772 201.78C392.406 201.586 393.046 201.421 393.692 201.285C394.384 201.079 395.024 200.914 395.611 200.791C396.186 200.609 396.585 200.464 396.807 200.356C396.734 200.004 396.64 199.411 396.526 198.576C396.459 197.671 396.344 196.683 396.181 195.614C396.065 194.474 395.93 193.245 395.777 191.929C395.623 190.612 395.476 189.325 395.335 188.067C394.942 185.023 394.559 181.732 394.185 178.193L393.107 170.419L391.804 170.784L391.366 178.784L390.539 202.038Z" fill="#262626"/>
</g>
<path d="M280.502 375.815C280.552 374.468 280.593 373.14 280.626 371.832C280.641 371.281 280.653 370.707 280.66 370.109C280.668 369.512 280.671 368.927 280.671 368.355C280.68 367.769 280.676 367.209 280.658 366.677C280.65 366.13 280.638 365.633 280.623 365.185C280.345 365.196 280.065 365.232 279.783 365.292C279.513 365.351 279.235 365.362 278.948 365.325C278.928 365.134 278.896 364.914 278.854 364.666C278.812 364.417 278.775 364.168 278.745 363.918C278.71 363.643 278.672 363.352 278.632 363.042C278.943 363.013 279.254 362.978 279.563 362.938C279.873 362.897 280.181 362.85 280.489 362.798C281.092 362.695 281.67 362.584 282.222 362.465C282.783 362.333 283.298 362.209 283.765 362.092C284.242 361.962 284.706 361.828 285.157 361.69L285.126 362.682C285.113 362.964 285.101 363.252 285.091 363.546C285.092 363.838 285.086 364.088 285.073 364.298C284.825 364.413 284.568 364.512 284.302 364.594C284.045 364.662 283.791 364.742 283.539 364.833C283.525 365.25 283.513 365.714 283.503 366.227C283.491 366.729 283.484 367.253 283.48 367.802C283.486 368.336 283.494 368.883 283.504 369.441C283.514 369.999 283.52 370.534 283.522 371.045C283.533 372.248 283.563 373.491 283.611 374.773L280.502 375.815ZM288.207 373.02C288.246 373.245 288.231 373.479 288.163 373.722C288.106 373.963 287.999 374.188 287.84 374.398C287.679 374.596 287.465 374.766 287.197 374.91C286.931 375.064 286.615 375.173 286.248 375.236C286 375.278 285.767 375.269 285.55 375.209C285.333 375.149 285.146 375.053 284.989 374.921C284.843 374.776 284.717 374.609 284.612 374.42C284.506 374.231 284.436 374.036 284.402 373.835C284.364 373.61 284.363 373.391 284.399 373.178C284.434 372.953 284.509 372.751 284.625 372.573C284.75 372.381 284.91 372.214 285.105 372.071C285.312 371.926 285.569 371.828 285.876 371.775C286.562 371.658 287.105 371.736 287.505 372.008C287.902 372.269 288.137 372.606 288.207 373.02ZM288.454 374.33C288.706 372.668 288.939 371.039 289.153 369.444C289.245 368.771 289.338 368.067 289.432 367.333C289.526 366.599 289.621 365.871 289.716 365.148C289.812 364.426 289.894 363.73 289.962 363.061C290.043 362.39 290.107 361.77 290.156 361.202C290.807 361.091 291.416 360.95 291.983 360.78C292.551 360.61 293.167 360.438 293.831 360.264C293.84 360.53 293.849 360.833 293.858 361.172C293.877 361.498 293.887 361.843 293.889 362.208C293.902 362.571 293.912 362.947 293.917 363.335C293.923 363.724 293.934 364.221 293.953 364.826C293.971 365.432 293.985 366.191 293.994 367.102L294.225 367.063C294.414 366.105 294.571 365.311 294.695 364.681C294.816 364.04 294.916 363.518 294.993 363.115C295.071 362.712 295.15 362.321 295.231 361.942C295.322 361.549 295.406 361.182 295.481 360.84C295.567 360.485 295.647 360.173 295.723 359.904C296.015 359.83 296.288 359.753 296.542 359.673C296.796 359.593 297.05 359.513 297.305 359.433C297.557 359.341 297.81 359.256 298.064 359.176C298.328 359.082 298.615 358.978 298.924 358.865C298.923 359.571 298.931 360.294 298.947 361.034C298.964 361.773 298.993 362.511 299.033 363.247C299.072 363.971 299.109 364.688 299.145 365.401C299.194 366.111 299.242 366.784 299.29 367.421C299.398 368.912 299.518 370.365 299.65 371.779L296.657 372.856C296.647 372.797 296.625 372.636 296.593 372.374C296.572 372.109 296.541 371.786 296.5 371.403C296.471 371.019 296.441 370.592 296.409 370.122C296.39 369.651 296.364 369.181 296.332 368.711C296.313 368.24 296.296 367.786 296.283 367.35C296.267 366.902 296.263 366.52 296.269 366.202L296.11 366.229C296.029 366.754 295.935 367.312 295.829 367.902C295.721 368.481 295.609 369.072 295.493 369.676C295.389 370.278 295.283 370.869 295.175 371.447C295.066 372.026 294.978 372.576 294.909 373.1C294.497 373.182 294.145 373.26 293.853 373.335C293.56 373.397 293.22 373.473 292.833 373.564L292.277 366.884L292.011 366.929C292.013 367.087 291.999 367.357 291.967 367.74C291.933 368.111 291.891 368.545 291.842 369.04C291.802 369.521 291.755 370.029 291.7 370.561C291.643 371.083 291.586 371.573 291.531 372.033C291.486 372.479 291.446 372.851 291.411 373.149C291.375 373.435 291.354 373.597 291.348 373.635L288.454 374.33ZM300.135 372.463L300.305 359.45L305.83 358.014C305.791 358.288 305.766 358.567 305.753 358.849C305.732 359.084 305.714 359.33 305.697 359.589C305.69 359.833 305.685 360.053 305.682 360.249C305.566 360.281 305.396 360.322 305.173 360.372C304.96 360.408 304.731 360.454 304.484 360.508C304.236 360.55 303.982 360.594 303.721 360.638C303.473 360.681 303.254 360.718 303.065 360.75L302.986 364.032C303.349 363.946 303.689 363.87 304.006 363.803C304.265 363.747 304.53 363.696 304.802 363.649C305.074 363.603 305.274 363.563 305.402 363.529C305.411 363.868 305.42 364.201 305.427 364.529C305.446 364.854 305.454 365.188 305.451 365.529C305.335 365.561 305.142 365.606 304.872 365.664C304.612 365.709 304.347 365.76 304.077 365.818C303.771 365.883 303.436 365.952 303.071 366.027L303.026 369.394L305.546 368.544L305.714 370.597L300.135 372.463ZM311.43 365.804C310.601 367.65 309.749 369.543 308.875 371.481L305.812 371.292C306.013 370.905 306.272 370.386 306.587 369.736C306.911 369.072 307.266 368.329 307.649 367.509C308.044 366.687 308.46 365.806 308.896 364.868C309.332 363.929 309.766 362.978 310.199 362.016C310.629 361.041 311.044 360.088 311.445 359.155C311.857 358.22 312.225 357.342 312.547 356.52C312.666 356.573 312.849 356.614 313.098 356.645C313.356 356.662 313.632 356.669 313.924 356.668C314.227 356.665 314.524 356.657 314.814 356.644C315.114 356.617 315.36 356.599 315.554 356.591C315.29 357.184 314.991 357.856 314.656 358.607C314.332 359.344 313.989 360.114 313.627 360.919C313.265 361.723 312.895 362.547 312.515 363.391C312.146 364.221 311.784 365.026 311.43 365.804ZM317.756 369.454C317.806 368.106 317.847 366.778 317.879 365.47C317.895 364.919 317.906 364.345 317.914 363.748C317.921 363.15 317.925 362.565 317.925 361.993C317.934 361.407 317.93 360.847 317.912 360.315C317.904 359.768 317.892 359.271 317.876 358.824C317.598 358.835 317.318 358.87 317.036 358.931C316.766 358.989 316.488 359 316.202 358.963C316.182 358.772 316.15 358.552 316.108 358.304C316.065 358.055 316.029 357.806 315.998 357.556C315.964 357.282 315.926 356.99 315.885 356.68C316.197 356.651 316.507 356.617 316.817 356.576C317.126 356.535 317.435 356.489 317.743 356.436C318.346 356.333 318.923 356.222 319.475 356.104C320.037 355.971 320.551 355.847 321.019 355.731C321.495 355.6 321.96 355.466 322.411 355.328L322.379 356.32C322.367 356.602 322.355 356.89 322.344 357.184C322.345 357.476 322.339 357.727 322.326 357.936C322.078 358.051 321.821 358.15 321.555 358.232C321.299 358.3 321.045 358.38 320.793 358.472C320.779 358.888 320.767 359.353 320.757 359.866C320.745 360.367 320.737 360.892 320.734 361.44C320.74 361.975 320.748 362.521 320.758 363.079C320.768 363.638 320.774 364.172 320.776 364.683C320.787 365.886 320.816 367.129 320.865 368.411L317.756 369.454ZM322.73 368.604L322.9 355.592L328.425 354.155C328.386 354.43 328.361 354.708 328.348 354.99C328.327 355.225 328.309 355.472 328.292 355.73C328.285 355.975 328.28 356.195 328.277 356.39C328.16 356.422 327.991 356.463 327.768 356.513C327.555 356.55 327.326 356.595 327.079 356.649C326.831 356.692 326.577 356.735 326.316 356.78C326.068 356.822 325.849 356.859 325.66 356.892L325.581 360.174C325.944 360.088 326.284 360.011 326.601 359.945C326.859 359.889 327.125 359.837 327.397 359.791C327.669 359.744 327.869 359.704 327.997 359.67C328.006 360.009 328.014 360.343 328.022 360.67C328.041 360.996 328.049 361.329 328.046 361.67C327.93 361.702 327.737 361.747 327.467 361.806C327.207 361.85 326.941 361.902 326.671 361.96C326.366 362.024 326.031 362.094 325.666 362.168L325.62 365.536L328.141 364.685L328.309 366.738L322.73 368.604ZM328.759 367.575C328.831 365.858 328.888 364.193 328.928 362.579C328.932 361.884 328.937 361.165 328.944 360.421C328.95 359.678 328.947 358.942 328.932 358.214C328.929 357.484 328.912 356.781 328.882 356.104C328.861 355.414 328.828 354.792 328.783 354.24C329.059 354.217 329.37 354.189 329.718 354.154C330.063 354.107 330.385 354.07 330.685 354.043C331.044 354.006 331.401 353.958 331.755 353.897C331.752 353.946 331.749 354.038 331.748 354.172C331.746 354.306 331.744 354.471 331.741 354.666C331.736 354.85 331.728 355.058 331.72 355.291C331.722 355.522 331.719 355.754 331.71 355.986C331.705 356.523 331.698 357.127 331.691 357.797L331.794 357.762C331.88 357.552 332.002 357.264 332.158 356.896C332.324 356.515 332.493 356.114 332.665 355.695C332.837 355.277 333.006 354.876 333.172 354.495C333.336 354.102 333.474 353.768 333.586 353.493C334.169 353.345 334.751 353.191 335.333 353.03C335.914 352.87 336.492 352.692 337.068 352.497C336.639 353.337 336.226 354.162 335.829 354.973C335.656 355.319 335.48 355.677 335.3 356.049C335.132 356.419 334.963 356.782 334.793 357.14C334.622 357.498 334.462 357.842 334.311 358.172C334.173 358.5 334.048 358.801 333.936 359.076C334.401 360.226 334.905 361.327 335.45 362.378C335.995 363.429 336.549 364.503 337.114 365.6C336.84 365.635 336.561 365.676 336.277 365.725C335.991 365.761 335.712 365.803 335.44 365.849C335.097 365.908 334.767 365.97 334.449 366.037C334.13 366.091 333.8 366.154 333.459 366.224C333.221 365.473 332.965 364.689 332.692 363.872C332.428 363.04 332.177 362.249 331.94 361.498L331.684 361.926C331.662 362.295 331.642 362.748 331.624 363.287C331.618 363.824 331.61 364.343 331.598 364.844C331.588 365.43 331.576 366.034 331.561 366.658L328.759 367.575ZM339.718 365.374C339.353 365.522 338.976 365.665 338.586 365.805C338.641 364.7 338.69 363.596 338.733 362.493C338.751 362.027 338.764 361.538 338.774 361.025C338.794 360.498 338.808 359.978 338.818 359.466C338.838 358.939 338.853 358.419 338.862 357.906C338.872 357.393 338.875 356.912 338.871 356.462C338.591 356.534 338.32 356.617 338.056 356.711C337.837 356.784 337.607 356.866 337.367 356.956C337.137 357.032 336.941 357.096 336.779 357.148C336.774 356.978 336.767 356.724 336.758 356.384C336.747 356.033 336.741 355.675 336.739 355.31C336.718 354.9 336.702 354.452 336.692 353.967C336.954 353.861 337.32 353.72 337.788 353.542C338.19 353.401 338.725 353.218 339.393 352.994C340.061 352.771 340.889 352.489 341.878 352.15C341.808 353.233 341.75 354.284 341.705 355.302C341.671 356.318 341.644 357.333 341.622 358.348C341.612 359.36 341.605 360.384 341.599 361.419C341.603 362.441 341.612 363.493 341.626 364.574C341.368 364.703 341.069 364.839 340.728 364.983C340.387 365.126 340.051 365.257 339.718 365.374ZM346.541 364.556L346.411 361.657L343.399 362.408L342.345 360.945C342.536 359.707 342.717 358.526 342.89 357.401C342.967 356.925 343.042 356.437 343.115 355.938C343.186 355.427 343.254 354.934 343.32 354.46C343.397 353.985 343.466 353.535 343.527 353.11C343.589 352.686 343.647 352.317 343.703 352.003C344.2 351.918 344.665 351.826 345.099 351.728C345.542 351.616 346.012 351.481 346.509 351.323C346.259 352.498 346.04 353.673 345.851 354.85C345.674 356.024 345.507 357.216 345.348 358.424C345.35 358.508 345.35 358.581 345.348 358.643C345.347 358.704 345.341 358.778 345.332 358.865L346.591 358.649C346.589 358.565 346.591 358.43 346.596 358.247C346.599 358.052 346.603 357.826 346.608 357.569C346.613 357.313 346.614 357.033 346.61 356.729C346.619 356.423 346.627 356.111 346.633 355.794C346.634 355.087 346.648 354.312 346.674 353.467C347.043 353.344 347.418 353.225 347.8 353.111C348.112 353.009 348.436 352.911 348.773 352.817C349.11 352.723 349.4 352.643 349.645 352.577C349.653 352.697 349.652 352.904 349.641 353.198C349.642 353.49 349.638 353.82 349.627 354.187C349.629 354.552 349.629 354.941 349.626 355.356C349.636 355.768 349.635 356.157 349.625 356.524C349.615 356.891 349.61 357.221 349.611 357.513C349.612 357.805 349.611 358.012 349.608 358.134L350.619 357.962L350.376 360.925L349.472 361.079L349.709 363.431L346.541 364.556ZM358.843 353.435C358.952 354.073 359.011 354.739 359.02 355.431C359.028 356.124 358.976 356.814 358.862 357.503C358.758 358.179 358.596 358.833 358.376 359.467C358.167 360.099 357.893 360.67 357.554 361.178C357.213 361.675 356.81 362.096 356.346 362.444C355.892 362.777 355.369 362.994 354.777 363.095C354.233 363.188 353.749 363.167 353.324 363.033C352.911 362.896 352.551 362.678 352.244 362.377C351.947 362.063 351.7 361.685 351.503 361.244C351.304 360.791 351.158 360.292 351.065 359.748C350.958 359.121 350.915 358.441 350.935 357.707C350.956 356.973 351.039 356.246 351.184 355.528C351.341 354.807 351.556 354.107 351.83 353.427C352.103 352.747 352.419 352.139 352.778 351.603C353.149 351.065 353.565 350.617 354.028 350.258C354.488 349.887 354.99 349.655 355.534 349.562C355.972 349.488 356.369 349.535 356.727 349.706C357.097 349.874 357.421 350.135 357.701 350.489C357.98 350.843 358.213 351.278 358.399 351.794C358.594 352.296 358.742 352.843 358.843 353.435ZM353.626 358.708C353.701 359.146 353.833 359.488 354.021 359.736C354.209 359.984 354.469 360.08 354.8 360.023C355.238 359.948 355.615 359.732 355.931 359.374C356.247 359.015 356.498 358.595 356.684 358.113C356.867 357.619 356.985 357.1 357.039 356.555C357.09 355.998 357.075 355.484 356.994 355.01C356.907 354.502 356.733 354.087 356.471 353.767C356.221 353.444 355.883 353.319 355.458 353.392C355.115 353.45 354.812 353.673 354.549 354.058C354.284 354.432 354.07 354.889 353.906 355.428C353.752 355.953 353.647 356.513 353.59 357.107C353.534 357.701 353.545 358.235 353.626 358.708Z" fill="white"/>
<defs>
<filter id="filter0_d" x="231.772" y="156.022" width="187.104" height="108.701" filterUnits="userSpaceOnUse" color-interpolation-filters="sRGB">
<feFlood flood-opacity="0" result="BackgroundImageFix"/>
<feColorMatrix in="SourceAlpha" type="matrix" values="0 0 0 0 0 0 0 0 0 0 0 0 0 0 0 0 0 0 127 0"/>
<feOffset dx="3" dy="3"/>
<feGaussianBlur stdDeviation="1"/>
<feColorMatrix type="matrix" values="0 0 0 0 0 0 0 0 0 0 0 0 0 0 0 0 0 0 0.25 0"/>
<feBlend mode="normal" in2="BackgroundImageFix" result="effect1_dropShadow"/>
<feBlend mode="normal" in="SourceGraphic" in2="effect1_dropShadow" result="shape"/>
</filter>
<linearGradient id="paint0_linear" x1="-146.5" y1="-62" x2="574" y2="298" gradientUnits="userSpaceOnUse">
<stop stop-color="white" stop-opacity="0.48"/>
<stop offset="1" stop-color="white" stop-opacity="0"/>
</linearGradient>
<linearGradient id="paint1_linear" x1="435.5" y1="314" x2="323.5" y2="168.5" gradientUnits="userSpaceOnUse">
<stop stop-color="#D7D7D7"/>
<stop offset="1" stop-color="white" stop-opacity="0"/>
</linearGradient>
</defs>
</svg>
