<svg width="400" height="400" viewBox="0 0 400 400" fill="none" xmlns="http://www.w3.org/2000/svg">
<path d="M0 0H200H300L350 51L400 100V200V400H0V0Z" fill="white"/>
<path d="M91 132.76V139H64.984V105.4H90.376V111.64H72.712V118.936H88.312V124.984H72.712V132.76H91ZM118.595 139L112.115 129.64H111.731H104.963V139H97.1871V105.4H111.731C114.707 105.4 117.283 105.896 119.459 106.888C121.667 107.88 123.363 109.288 124.547 111.112C125.731 112.936 126.323 115.096 126.323 117.592C126.323 120.088 125.715 122.248 124.499 124.072C123.315 125.864 121.619 127.24 119.411 128.2L126.947 139H118.595ZM118.451 117.592C118.451 115.704 117.843 114.264 116.627 113.272C115.411 112.248 113.635 111.736 111.299 111.736H104.963V123.448H111.299C113.635 123.448 115.411 122.936 116.627 121.912C117.843 120.888 118.451 119.448 118.451 117.592ZM153.892 139L147.412 129.64H147.028H140.26V139H132.484V105.4H147.028C150.004 105.4 152.58 105.896 154.756 106.888C156.964 107.88 158.66 109.288 159.844 111.112C161.028 112.936 161.62 115.096 161.62 117.592C161.62 120.088 161.012 122.248 159.796 124.072C158.612 125.864 156.916 127.24 154.708 128.2L162.244 139H153.892ZM153.748 117.592C153.748 115.704 153.14 114.264 151.924 113.272C150.708 112.248 148.932 111.736 146.596 111.736H140.26V123.448H146.596C148.932 123.448 150.708 122.936 151.924 121.912C153.14 120.888 153.748 119.448 153.748 117.592ZM184.053 139.576C180.565 139.576 177.413 138.824 174.597 137.32C171.813 135.816 169.621 133.752 168.021 131.128C166.453 128.472 165.669 125.496 165.669 122.2C165.669 118.904 166.453 115.944 168.021 113.32C169.621 110.664 171.813 108.584 174.597 107.08C177.413 105.576 180.565 104.824 184.053 104.824C187.541 104.824 190.677 105.576 193.461 107.08C196.245 108.584 198.437 110.664 200.037 113.32C201.637 115.944 202.437 118.904 202.437 122.2C202.437 125.496 201.637 128.472 200.037 131.128C198.437 133.752 196.245 135.816 193.461 137.32C190.677 138.824 187.541 139.576 184.053 139.576ZM184.053 132.952C186.037 132.952 187.829 132.504 189.429 131.608C191.029 130.68 192.277 129.4 193.173 127.768C194.101 126.136 194.565 124.28 194.565 122.2C194.565 120.12 194.101 118.264 193.173 116.632C192.277 115 191.029 113.736 189.429 112.84C187.829 111.912 186.037 111.448 184.053 111.448C182.069 111.448 180.277 111.912 178.677 112.84C177.077 113.736 175.813 115 174.885 116.632C173.989 118.264 173.541 120.12 173.541 122.2C173.541 124.28 173.989 126.136 174.885 127.768C175.813 129.4 177.077 130.68 178.677 131.608C180.277 132.504 182.069 132.952 184.053 132.952ZM229.689 139L223.209 129.64H222.825H216.057V139H208.281V105.4H222.825C225.801 105.4 228.377 105.896 230.553 106.888C232.761 107.88 234.457 109.288 235.641 111.112C236.825 112.936 237.417 115.096 237.417 117.592C237.417 120.088 236.809 122.248 235.593 124.072C234.409 125.864 232.713 127.24 230.505 128.2L238.041 139H229.689ZM229.545 117.592C229.545 115.704 228.937 114.264 227.721 113.272C226.505 112.248 224.729 111.736 222.393 111.736H216.057V123.448H222.393C224.729 123.448 226.505 122.936 227.721 121.912C228.937 120.888 229.545 119.448 229.545 117.592ZM268.02 105.4V139H260.243V111.64H253.524V105.4H268.02ZM304.624 131.944H299.152V139H291.568V131.944H273.472V126.712L289.312 105.4H297.472L282.784 125.608H291.808V119.32H299.152V125.608H304.624V131.944ZM321.35 139.576C318.566 139.576 316.086 138.888 313.91 137.512C311.734 136.136 310.022 134.152 308.774 131.56C307.558 128.936 306.95 125.816 306.95 122.2C306.95 118.584 307.558 115.48 308.774 112.888C310.022 110.264 311.734 108.264 313.91 106.888C316.086 105.512 318.566 104.824 321.35 104.824C324.134 104.824 326.614 105.512 328.79 106.888C330.966 108.264 332.662 110.264 333.878 112.888C335.126 115.48 335.75 118.584 335.75 122.2C335.75 125.816 335.126 128.936 333.878 131.56C332.662 134.152 330.966 136.136 328.79 137.512C326.614 138.888 324.134 139.576 321.35 139.576ZM321.35 133C323.398 133 324.998 132.12 326.15 130.36C327.334 128.6 327.926 125.88 327.926 122.2C327.926 118.52 327.334 115.8 326.15 114.04C324.998 112.28 323.398 111.4 321.35 111.4C319.334 111.4 317.734 112.28 316.55 114.04C315.398 115.8 314.822 118.52 314.822 122.2C314.822 125.88 315.398 128.6 316.55 130.36C317.734 132.12 319.334 133 321.35 133Z" fill="black"/>
<path d="M83.17 209.23L88.48 220H86.71L81.76 210.04H77.11L75.13 220H73.63L75.61 210.04H71.02L62.11 220H60.22L69.88 209.17L65.05 199H66.73L71.23 208.66H75.91L77.83 199H79.33L77.41 208.66H82.03L90.37 199H92.14L83.17 209.23ZM104.545 218.68H107.065L106.045 223.9H104.605L105.355 220H90.5348L89.7848 223.9H88.3448L89.3948 218.68H90.2348C91.3148 218.62 92.2248 217.78 92.9648 216.16C93.7048 214.54 94.4348 212.3 95.1548 209.44L96.4148 204.34H107.425L104.545 218.68ZM96.5048 209.65C95.9048 212.07 95.3048 214.05 94.7048 215.59C94.1248 217.11 93.4148 218.14 92.5748 218.68H103.045L105.655 205.69H97.4948L96.5048 209.65ZM114.316 204.34H115.816L113.116 217.78L126.856 204.34H128.326L125.176 220H123.646L126.376 206.53L112.606 220H111.166L114.316 204.34ZM144.936 205.69H138.786L135.966 220H134.466L137.286 205.69H131.226L131.496 204.34H145.206L144.936 205.69ZM146.065 212.5C146.025 212.94 146.005 213.27 146.005 213.49C146.005 215.19 146.495 216.5 147.475 217.42C148.455 218.32 149.895 218.77 151.795 218.77C152.895 218.77 153.905 218.59 154.825 218.23C155.765 217.85 156.545 217.33 157.165 216.67L157.855 217.72C157.155 218.48 156.255 219.07 155.155 219.49C154.075 219.91 152.915 220.12 151.675 220.12C149.455 220.12 147.705 219.54 146.425 218.38C145.165 217.22 144.535 215.61 144.535 213.55C144.535 211.79 144.905 210.2 145.645 208.78C146.385 207.36 147.405 206.25 148.705 205.45C150.005 204.63 151.465 204.22 153.085 204.22C155.125 204.22 156.745 204.8 157.945 205.96C159.145 207.12 159.745 208.72 159.745 210.76C159.745 211.24 159.685 211.82 159.565 212.5H146.065ZM153.055 205.51C151.355 205.51 149.885 206.04 148.645 207.1C147.425 208.16 146.625 209.57 146.245 211.33H158.305C158.325 211.15 158.335 210.89 158.335 210.55C158.335 208.97 157.855 207.74 156.895 206.86C155.935 205.96 154.655 205.51 153.055 205.51ZM163.286 217.57C163.626 217.57 163.916 217.69 164.156 217.93C164.396 218.17 164.516 218.46 164.516 218.8C164.516 218.98 164.476 219.16 164.396 219.34C164.336 219.52 164.266 219.68 164.186 219.82C164.126 219.94 164.086 220.03 164.066 220.09L161.966 224.29H160.886L162.716 220.03C162.496 219.93 162.316 219.78 162.176 219.58C162.036 219.36 161.966 219.13 161.966 218.89C161.966 218.51 162.096 218.2 162.356 217.96C162.616 217.7 162.926 217.57 163.286 217.57ZM178.467 212.5C178.427 212.94 178.407 213.27 178.407 213.49C178.407 215.19 178.897 216.5 179.877 217.42C180.857 218.32 182.297 218.77 184.197 218.77C185.297 218.77 186.307 218.59 187.227 218.23C188.167 217.85 188.947 217.33 189.567 216.67L190.257 217.72C189.557 218.48 188.657 219.07 187.557 219.49C186.477 219.91 185.317 220.12 184.077 220.12C181.857 220.12 180.107 219.54 178.827 218.38C177.567 217.22 176.937 215.61 176.937 213.55C176.937 211.79 177.307 210.2 178.047 208.78C178.787 207.36 179.807 206.25 181.107 205.45C182.407 204.63 183.867 204.22 185.487 204.22C187.527 204.22 189.147 204.8 190.347 205.96C191.547 207.12 192.147 208.72 192.147 210.76C192.147 211.24 192.087 211.82 191.967 212.5H178.467ZM185.457 205.51C183.757 205.51 182.287 206.04 181.047 207.1C179.827 208.16 179.027 209.57 178.647 211.33H190.707C190.727 211.15 190.737 210.89 190.737 210.55C190.737 208.97 190.257 207.74 189.297 206.86C188.337 205.96 187.057 205.51 185.457 205.51ZM219.839 204.34L216.689 220H195.629L198.749 204.34H200.249L197.429 218.68H205.739L208.559 204.34H210.059L207.239 218.68H215.489L218.339 204.34H219.839ZM219.419 218.68L218.429 223.54H216.989L217.709 220H215.069L215.339 218.68H219.419ZM225.137 212.5C225.097 212.94 225.077 213.27 225.077 213.49C225.077 215.19 225.567 216.5 226.547 217.42C227.527 218.32 228.967 218.77 230.867 218.77C231.967 218.77 232.977 218.59 233.897 218.23C234.837 217.85 235.617 217.33 236.237 216.67L236.927 217.72C236.227 218.48 235.327 219.07 234.227 219.49C233.147 219.91 231.987 220.12 230.747 220.12C228.527 220.12 226.777 219.54 225.497 218.38C224.237 217.22 223.607 215.61 223.607 213.55C223.607 211.79 223.977 210.2 224.717 208.78C225.457 207.36 226.477 206.25 227.777 205.45C229.077 204.63 230.537 204.22 232.157 204.22C234.197 204.22 235.817 204.8 237.017 205.96C238.217 207.12 238.817 208.72 238.817 210.76C238.817 211.24 238.757 211.82 238.637 212.5H225.137ZM232.127 205.51C230.427 205.51 228.957 206.04 227.717 207.1C226.497 208.16 225.697 209.57 225.317 211.33H237.377C237.397 211.15 237.407 210.89 237.407 210.55C237.407 208.97 236.927 207.74 235.967 206.86C235.007 205.96 233.727 205.51 232.127 205.51ZM65.77 241.34H67.27L65.83 248.48H76.48L77.92 241.34H79.42L76.27 257H74.77L76.24 249.8H65.59L64.15 257H62.65L65.77 241.34ZM84.2484 249.5C84.2084 249.94 84.1884 250.27 84.1884 250.49C84.1884 252.19 84.6784 253.5 85.6584 254.42C86.6384 255.32 88.0784 255.77 89.9784 255.77C91.0784 255.77 92.0884 255.59 93.0084 255.23C93.9484 254.85 94.7284 254.33 95.3484 253.67L96.0384 254.72C95.3384 255.48 94.4384 256.07 93.3384 256.49C92.2584 256.91 91.0984 257.12 89.8584 257.12C87.6384 257.12 85.8884 256.54 84.6084 255.38C83.3484 254.22 82.7184 252.61 82.7184 250.55C82.7184 248.79 83.0884 247.2 83.8284 245.78C84.5684 244.36 85.5884 243.25 86.8884 242.45C88.1884 241.63 89.6484 241.22 91.2684 241.22C93.3084 241.22 94.9284 241.8 96.1284 242.96C97.3284 244.12 97.9284 245.72 97.9284 247.76C97.9284 248.24 97.8684 248.82 97.7484 249.5H84.2484ZM91.2384 242.51C89.5384 242.51 88.0684 243.04 86.8284 244.1C85.6084 245.16 84.8084 246.57 84.4284 248.33H96.4884C96.5084 248.15 96.5184 247.89 96.5184 247.55C96.5184 245.97 96.0384 244.74 95.0784 243.86C94.1184 242.96 92.8384 242.51 91.2384 242.51ZM122.705 242.69H113.435L110.615 257H109.115L112.235 241.34H122.975L122.705 242.69ZM129.228 257.12C127.108 257.12 125.418 256.53 124.158 255.35C122.918 254.17 122.298 252.59 122.298 250.61C122.298 248.83 122.678 247.23 123.438 245.81C124.218 244.39 125.288 243.27 126.648 242.45C128.008 241.63 129.548 241.22 131.268 241.22C133.388 241.22 135.068 241.81 136.308 242.99C137.568 244.15 138.198 245.73 138.198 247.73C138.198 249.51 137.808 251.12 137.028 252.56C136.268 253.98 135.208 255.1 133.848 255.92C132.488 256.72 130.948 257.12 129.228 257.12ZM129.348 255.77C130.748 255.77 131.998 255.43 133.098 254.75C134.218 254.07 135.098 253.13 135.738 251.93C136.378 250.71 136.698 249.34 136.698 247.82C136.698 246.16 136.208 244.87 135.228 243.95C134.268 243.03 132.908 242.57 131.148 242.57C129.748 242.57 128.488 242.92 127.368 243.62C126.268 244.3 125.398 245.25 124.758 246.47C124.118 247.67 123.798 249.02 123.798 250.52C123.798 252.18 124.278 253.47 125.238 254.39C126.218 255.31 127.588 255.77 129.348 255.77ZM154.252 242.69H148.102L145.282 257H143.782L146.602 242.69H140.542L140.812 241.34H154.522L154.252 242.69ZM160.781 257.12C158.661 257.12 156.971 256.53 155.711 255.35C154.471 254.17 153.851 252.59 153.851 250.61C153.851 248.83 154.231 247.23 154.991 245.81C155.771 244.39 156.841 243.27 158.201 242.45C159.561 241.63 161.101 241.22 162.821 241.22C164.941 241.22 166.621 241.81 167.861 242.99C169.121 244.15 169.751 245.73 169.751 247.73C169.751 249.51 169.361 251.12 168.581 252.56C167.821 253.98 166.761 255.1 165.401 255.92C164.041 256.72 162.501 257.12 160.781 257.12ZM160.901 255.77C162.301 255.77 163.551 255.43 164.651 254.75C165.771 254.07 166.651 253.13 167.291 251.93C167.931 250.71 168.251 249.34 168.251 247.82C168.251 246.16 167.761 244.87 166.781 243.95C165.821 243.03 164.461 242.57 162.701 242.57C161.301 242.57 160.041 242.92 158.921 243.62C157.821 244.3 156.951 245.25 156.311 246.47C155.671 247.67 155.351 249.02 155.351 250.52C155.351 252.18 155.831 253.47 156.791 254.39C157.771 255.31 159.141 255.77 160.901 255.77ZM183.931 248.93C184.871 249.13 185.561 249.49 186.001 250.01C186.461 250.51 186.691 251.21 186.691 252.11C186.691 253.63 186.091 254.83 184.891 255.71C183.691 256.57 182.021 257 179.881 257H173.041L176.191 241.34H182.731C184.331 241.34 185.541 241.63 186.361 242.21C187.201 242.79 187.621 243.64 187.621 244.76C187.621 245.78 187.291 246.66 186.631 247.4C185.971 248.12 185.071 248.63 183.931 248.93ZM176.221 248.48H181.261C182.701 248.48 183.861 248.16 184.741 247.52C185.641 246.86 186.091 246.01 186.091 244.97C186.091 244.15 185.791 243.55 185.191 243.17C184.591 242.77 183.691 242.57 182.491 242.57H177.391L176.221 248.48ZM180.001 255.77C181.641 255.77 182.921 255.45 183.841 254.81C184.761 254.15 185.221 253.24 185.221 252.08C185.221 251.22 184.931 250.6 184.351 250.22C183.791 249.84 182.861 249.65 181.561 249.65H175.981L174.751 255.77H180.001ZM198.018 257.12C195.898 257.12 194.208 256.53 192.948 255.35C191.708 254.17 191.088 252.59 191.088 250.61C191.088 248.83 191.468 247.23 192.228 245.81C193.008 244.39 194.078 243.27 195.438 242.45C196.798 241.63 198.338 241.22 200.058 241.22C202.178 241.22 203.858 241.81 205.098 242.99C206.358 244.15 206.988 245.73 206.988 247.73C206.988 249.51 206.598 251.12 205.818 252.56C205.058 253.98 203.998 255.1 202.638 255.92C201.278 256.72 199.738 257.12 198.018 257.12ZM198.138 255.77C199.538 255.77 200.788 255.43 201.888 254.75C203.008 254.07 203.888 253.13 204.528 251.93C205.168 250.71 205.488 249.34 205.488 247.82C205.488 246.16 204.998 244.87 204.018 243.95C203.058 243.03 201.698 242.57 199.938 242.57C198.538 242.57 197.278 242.92 196.158 243.62C195.058 244.3 194.188 245.25 193.548 246.47C192.908 247.67 192.588 249.02 192.588 250.52C192.588 252.18 193.068 253.47 194.028 254.39C195.008 255.31 196.378 255.77 198.138 255.77ZM209.839 254.57C210.179 254.57 210.469 254.69 210.709 254.93C210.949 255.17 211.069 255.46 211.069 255.8C211.069 255.98 211.029 256.16 210.949 256.34C210.889 256.52 210.819 256.68 210.739 256.82C210.679 256.94 210.639 257.03 210.619 257.09L208.519 261.29H207.439L209.269 257.03C209.049 256.93 208.869 256.78 208.729 256.58C208.589 256.36 208.519 256.13 208.519 255.89C208.519 255.51 208.649 255.2 208.909 254.96C209.169 254.7 209.479 254.57 209.839 254.57ZM73.12 283.29L79.54 294H77.89L71.89 284.04H66.73L64.75 294H63.22L67.42 273H68.95L67.03 282.66H72.01L81.49 273H83.29L73.12 283.29ZM81.67 292.62L80.47 298.8H79L79.93 294H77.89L78.16 292.62H81.67ZM90.0897 294L88.9197 299.82H87.4197L88.5897 294.09L84.5997 278.34H86.1297L89.6097 292.38L98.6697 278.34H100.26L90.0897 294ZM83.5197 293.28H95.4897L95.2497 294.42H83.2797L83.5197 293.28ZM112.689 292.68H115.209L114.189 297.9H112.749L113.499 294H98.6793L97.9293 297.9H96.4893L97.5393 292.68H98.3793C99.4593 292.62 100.369 291.78 101.109 290.16C101.849 288.54 102.579 286.3 103.299 283.44L104.559 278.34H115.569L112.689 292.68ZM104.649 283.65C104.049 286.07 103.449 288.05 102.849 289.59C102.269 291.11 101.559 292.14 100.719 292.68H111.189L113.799 279.69H105.639L104.649 283.65ZM136.62 278.34L133.5 294H132.06L132.66 290.94C131.9 291.94 130.95 292.72 129.81 293.28C128.69 293.84 127.44 294.12 126.06 294.12C124.02 294.12 122.38 293.54 121.14 292.38C119.92 291.2 119.31 289.61 119.31 287.61C119.31 285.83 119.69 284.23 120.45 282.81C121.21 281.37 122.26 280.25 123.6 279.45C124.96 278.63 126.48 278.22 128.16 278.22C129.78 278.22 131.12 278.57 132.18 279.27C133.24 279.97 133.96 280.96 134.34 282.24L135.12 278.34H136.62ZM126.36 292.77C127.76 292.77 129.01 292.43 130.11 291.75C131.23 291.07 132.11 290.13 132.75 288.93C133.39 287.71 133.71 286.34 133.71 284.82C133.71 283.16 133.22 281.87 132.24 280.95C131.28 280.03 129.92 279.57 128.16 279.57C126.76 279.57 125.5 279.92 124.38 280.62C123.28 281.3 122.41 282.25 121.77 283.47C121.13 284.67 120.81 286.02 120.81 287.52C120.81 289.18 121.29 290.47 122.25 291.39C123.23 292.31 124.6 292.77 126.36 292.77ZM143.114 278.34H144.614L141.914 291.78L155.654 278.34H157.124L153.974 294H152.444L155.174 280.53L141.404 294H139.964L143.114 278.34ZM150.674 275.91C149.514 275.91 148.594 275.64 147.914 275.1C147.254 274.56 146.924 273.83 146.924 272.91C146.924 272.79 146.944 272.57 146.984 272.25H148.094C148.074 272.35 148.064 272.51 148.064 272.73C148.064 273.39 148.304 273.93 148.784 274.35C149.264 274.75 149.914 274.95 150.734 274.95C151.634 274.95 152.414 274.71 153.074 274.23C153.734 273.73 154.174 273.07 154.394 272.25H155.474C155.234 273.39 154.684 274.29 153.824 274.95C152.964 275.59 151.914 275.91 150.674 275.91ZM176.129 286.05L181.379 294H179.669L174.929 286.74H171.059L169.589 294H168.089L171.239 278.34H172.739L171.299 285.45H175.019L182.369 278.34H184.139L176.129 286.05ZM183.329 292.71L182.369 297.54H180.989L181.679 294H179.669L179.939 292.71H183.329ZM203.3 278.34L200.18 294H198.74L199.34 290.94C198.58 291.94 197.63 292.72 196.49 293.28C195.37 293.84 194.12 294.12 192.74 294.12C190.7 294.12 189.06 293.54 187.82 292.38C186.6 291.2 185.99 289.61 185.99 287.61C185.99 285.83 186.37 284.23 187.13 282.81C187.89 281.37 188.94 280.25 190.28 279.45C191.64 278.63 193.16 278.22 194.84 278.22C196.46 278.22 197.8 278.57 198.86 279.27C199.92 279.97 200.64 280.96 201.02 282.24L201.8 278.34H203.3ZM193.04 292.77C194.44 292.77 195.69 292.43 196.79 291.75C197.91 291.07 198.79 290.13 199.43 288.93C200.07 287.71 200.39 286.34 200.39 284.82C200.39 283.16 199.9 281.87 198.92 280.95C197.96 280.03 196.6 279.57 194.84 279.57C193.44 279.57 192.18 279.92 191.06 280.62C189.96 281.3 189.09 282.25 188.45 283.47C187.81 284.67 187.49 286.02 187.49 287.52C187.49 289.18 187.97 290.47 188.93 291.39C189.91 292.31 191.28 292.77 193.04 292.77ZM222.094 278.34L218.944 294H217.444L220.294 279.66H212.134L211.084 283.89C210.464 286.35 209.854 288.32 209.254 289.8C208.674 291.28 208.034 292.38 207.334 293.1C206.634 293.82 205.834 294.18 204.934 294.18C204.534 294.18 204.094 294.11 203.614 293.97L203.974 292.68C204.374 292.76 204.614 292.8 204.694 292.8C205.414 292.8 206.054 292.48 206.614 291.84C207.174 291.2 207.694 290.23 208.174 288.93C208.674 287.61 209.194 285.86 209.734 283.68L211.084 278.34H222.094ZM242.675 278.34L239.555 294H238.115L238.715 290.94C237.955 291.94 237.005 292.72 235.865 293.28C234.745 293.84 233.495 294.12 232.115 294.12C230.075 294.12 228.435 293.54 227.195 292.38C225.975 291.2 225.365 289.61 225.365 287.61C225.365 285.83 225.745 284.23 226.505 282.81C227.265 281.37 228.315 280.25 229.655 279.45C231.015 278.63 232.535 278.22 234.215 278.22C235.835 278.22 237.175 278.57 238.235 279.27C239.295 279.97 240.015 280.96 240.395 282.24L241.175 278.34H242.675ZM232.415 292.77C233.815 292.77 235.065 292.43 236.165 291.75C237.285 291.07 238.165 290.13 238.805 288.93C239.445 287.71 239.765 286.34 239.765 284.82C239.765 283.16 239.275 281.87 238.295 280.95C237.335 280.03 235.975 279.57 234.215 279.57C232.815 279.57 231.555 279.92 230.435 280.62C229.335 281.3 228.465 282.25 227.825 283.47C227.185 284.67 226.865 286.02 226.865 287.52C226.865 289.18 227.345 290.47 228.305 291.39C229.285 292.31 230.655 292.77 232.415 292.77ZM253.069 294.12C250.909 294.12 249.189 293.53 247.909 292.35C246.649 291.17 246.019 289.59 246.019 287.61C246.019 285.83 246.399 284.23 247.159 282.81C247.939 281.37 249.009 280.25 250.369 279.45C251.749 278.63 253.299 278.22 255.019 278.22C256.419 278.22 257.619 278.47 258.619 278.97C259.619 279.45 260.399 280.18 260.959 281.16L259.729 281.91C258.789 280.35 257.189 279.57 254.929 279.57C253.509 279.57 252.239 279.92 251.119 280.62C249.999 281.3 249.119 282.24 248.479 283.44C247.839 284.64 247.519 286 247.519 287.52C247.519 289.18 248.009 290.47 248.989 291.39C249.969 292.31 251.369 292.77 253.189 292.77C254.229 292.77 255.199 292.57 256.099 292.17C257.019 291.77 257.779 291.21 258.379 290.49L259.429 291.33C258.749 292.21 257.839 292.9 256.699 293.4C255.579 293.88 254.369 294.12 253.069 294.12ZM280.146 278.34L277.026 294H275.586L276.186 290.94C275.426 291.94 274.476 292.72 273.336 293.28C272.216 293.84 270.966 294.12 269.586 294.12C267.546 294.12 265.906 293.54 264.666 292.38C263.446 291.2 262.836 289.61 262.836 287.61C262.836 285.83 263.216 284.23 263.976 282.81C264.736 281.37 265.786 280.25 267.126 279.45C268.486 278.63 270.006 278.22 271.686 278.22C273.306 278.22 274.646 278.57 275.706 279.27C276.766 279.97 277.486 280.96 277.866 282.24L278.646 278.34H280.146ZM269.886 292.77C271.286 292.77 272.536 292.43 273.636 291.75C274.756 291.07 275.636 290.13 276.276 288.93C276.916 287.71 277.236 286.34 277.236 284.82C277.236 283.16 276.746 281.87 275.766 280.95C274.806 280.03 273.446 279.57 271.686 279.57C270.286 279.57 269.026 279.92 267.906 280.62C266.806 281.3 265.936 282.25 265.296 283.47C264.656 284.67 264.336 286.02 264.336 287.52C264.336 289.18 264.816 290.47 265.776 291.39C266.756 292.31 268.126 292.77 269.886 292.77ZM72.91 315.94C74.89 315.94 76.44 316.5 77.56 317.62C78.7 318.72 79.27 320.25 79.27 322.21C79.27 323.89 78.87 325.42 78.07 326.8C77.29 328.16 76.21 329.24 74.83 330.04C73.47 330.82 71.94 331.21 70.24 331.21C68.04 331.21 66.32 330.54 65.08 329.2C63.86 327.86 63.25 325.97 63.25 323.53C63.25 321.37 63.68 319.34 64.54 317.44C65.42 315.52 66.63 313.91 68.17 312.61C69.73 311.31 71.51 310.44 73.51 310L80.68 308.44L80.74 309.79L73.84 311.26C71.62 311.76 69.74 312.8 68.2 314.38C66.68 315.96 65.63 317.92 65.05 320.26C65.99 318.86 67.13 317.79 68.47 317.05C69.81 316.31 71.29 315.94 72.91 315.94ZM70.33 329.98C71.69 329.98 72.93 329.65 74.05 328.99C75.19 328.31 76.08 327.4 76.72 326.26C77.36 325.1 77.68 323.82 77.68 322.42C77.68 320.78 77.23 319.52 76.33 318.64C75.43 317.76 74.16 317.32 72.52 317.32C71.2 317.32 69.94 317.64 68.74 318.28C67.54 318.92 66.57 319.76 65.83 320.8C65.09 321.84 64.72 322.92 64.72 324.04C64.72 325.86 65.22 327.31 66.22 328.39C67.24 329.45 68.61 329.98 70.33 329.98ZM97.8231 315.34L86.1231 333.31C85.2431 334.67 84.4031 335.61 83.6031 336.13C82.8231 336.67 81.8931 336.94 80.8131 336.94C80.0931 336.94 79.4131 336.82 78.7731 336.58C78.1331 336.34 77.6331 336 77.2731 335.56L78.1431 334.45C78.8431 335.23 79.7831 335.62 80.9631 335.62C81.6831 335.62 82.3331 335.42 82.9131 335.02C83.5131 334.62 84.1431 333.92 84.8031 332.92L86.1231 330.94L82.1631 315.34H83.6931L87.2031 329.35L96.2631 315.34H97.8231ZM110.433 329.68H112.953L111.933 334.9H110.493L111.243 331H96.4234L95.6734 334.9H94.2334L95.2834 329.68H96.1234C97.2034 329.62 98.1134 328.78 98.8534 327.16C99.5934 325.54 100.323 323.3 101.043 320.44L102.303 315.34H113.313L110.433 329.68ZM102.393 320.65C101.793 323.07 101.193 325.05 100.593 326.59C100.013 328.11 99.3034 329.14 98.4634 329.68H108.933L111.543 316.69H103.383L102.393 320.65ZM118.584 323.5C118.544 323.94 118.524 324.27 118.524 324.49C118.524 326.19 119.014 327.5 119.994 328.42C120.974 329.32 122.414 329.77 124.314 329.77C125.414 329.77 126.424 329.59 127.344 329.23C128.284 328.85 129.064 328.33 129.684 327.67L130.374 328.72C129.674 329.48 128.774 330.07 127.674 330.49C126.594 330.91 125.434 331.12 124.194 331.12C121.974 331.12 120.224 330.54 118.944 329.38C117.684 328.22 117.054 326.61 117.054 324.55C117.054 322.79 117.424 321.2 118.164 319.78C118.904 318.36 119.924 317.25 121.224 316.45C122.524 315.63 123.984 315.22 125.604 315.22C127.644 315.22 129.264 315.8 130.464 316.96C131.664 318.12 132.264 319.72 132.264 321.76C132.264 322.24 132.204 322.82 132.084 323.5H118.584ZM125.574 316.51C123.874 316.51 122.404 317.04 121.164 318.1C119.944 319.16 119.144 320.57 118.764 322.33H130.824C130.844 322.15 130.854 321.89 130.854 321.55C130.854 319.97 130.374 318.74 129.414 317.86C128.454 316.96 127.174 316.51 125.574 316.51ZM148.363 316.69H142.213L139.393 331H137.893L140.713 316.69H134.653L134.923 315.34H148.633L148.363 316.69Z" fill="black"/>
</svg>
