<svg width="700" height="250" viewBox="0 0 700 250" fill="none" xmlns="http://www.w3.org/2000/svg">
<rect width="700" height="250" rx="60" fill="white"/>
<path d="M503 108C525.091 108 543 90.0913 543 68C543 45.9087 525.091 28 503 28C480.909 28 463 45.9087 463 68C463 90.0913 480.909 108 503 108Z" fill="url(#paint0_linear)"/>
<path d="M477.897 69.9569C482.573 67.3813 487.793 65.2316 492.67 63.0709C501.06 59.5319 509.484 56.0543 517.993 52.8166C519.648 52.2649 522.623 51.7254 522.914 54.1788C522.755 57.6514 522.098 61.1038 521.647 64.5561C520.503 72.1481 519.181 79.7141 517.892 87.2811C517.448 89.8016 514.29 91.1064 512.27 89.4934C507.415 86.2138 502.522 82.9661 497.729 79.6104C496.159 78.0149 497.614 75.7238 499.017 74.5844C503.016 70.6434 507.257 67.2951 511.047 63.1504C512.069 60.6816 509.048 62.7623 508.052 63.3998C502.578 67.1724 497.237 71.1754 491.465 74.4911C488.517 76.1141 485.08 74.7271 482.133 73.8214C479.491 72.7274 475.619 71.6253 477.897 69.9571L477.897 69.9569Z" fill="white"/>
<path fill-rule="evenodd" clip-rule="evenodd" d="M600.721 50H625.28C647.693 50 653 55.307 653 77.7205V102.279C653 124.693 647.693 130 625.28 130H600.721C578.307 130 573 124.693 573 102.279V77.7205C573 55.307 578.307 50 600.721 50Z" fill="#4680C2"/>
<path fill-rule="evenodd" clip-rule="evenodd" d="M638.386 75.5348C638.781 74.2928 638.386 73.3895 636.636 73.3895H630.82C629.353 73.3895 628.675 74.1798 628.28 75.0268C628.28 75.0268 625.288 82.2533 621.11 86.9392C619.755 88.2942 619.134 88.7458 618.4 88.7458C618.005 88.7458 617.497 88.2942 617.497 87.0522V75.4783C617.497 74.0105 617.045 73.333 615.803 73.333H606.657C605.753 73.333 605.189 74.0105 605.189 74.688C605.189 76.0995 607.278 76.4382 607.504 80.3902V88.9717C607.504 90.8348 607.165 91.1735 606.431 91.1735C604.455 91.1735 599.656 83.8905 596.777 75.5913C596.212 73.954 595.648 73.333 594.18 73.333H588.308C586.614 73.333 586.332 74.1235 586.332 74.9703C586.332 76.4947 588.308 84.1728 595.535 94.3352C600.334 101.279 607.165 105.006 613.319 105.006C617.045 105.006 617.497 104.159 617.497 102.747V97.4968C617.497 95.803 617.835 95.5208 619.021 95.5208C619.868 95.5208 621.392 95.9723 624.836 99.3033C628.788 103.255 629.465 105.062 631.667 105.062H637.482C639.176 105.062 639.967 104.215 639.515 102.578C639.007 100.941 637.087 98.5695 634.603 95.7465C633.248 94.1658 631.216 92.4157 630.595 91.5687C629.748 90.4397 629.974 89.988 630.595 88.9717C630.538 88.9717 637.652 78.9223 638.386 75.5348Z" fill="white"/>
<path d="M548 216C570.091 216 588 198.091 588 176C588 153.909 570.091 136 548 136C525.909 136 508 153.909 508 176C508 198.091 525.909 216 548 216Z" fill="#25D366"/>
<path fill-rule="evenodd" clip-rule="evenodd" d="M549.317 198.255H549.307C545.327 198.253 541.415 197.254 537.941 195.359L525.332 198.667L528.706 186.342C526.625 182.735 525.53 178.643 525.531 174.451C525.537 161.336 536.207 150.667 549.317 150.667C555.68 150.67 561.652 153.147 566.142 157.643C570.633 162.138 573.105 168.114 573.102 174.469C573.097 187.581 562.431 198.249 549.317 198.255ZM538.525 191.054L539.247 191.482C542.282 193.283 545.761 194.236 549.309 194.238H549.317C560.213 194.238 569.082 185.369 569.086 174.468C569.088 169.186 567.034 164.219 563.301 160.482C559.569 156.745 554.605 154.686 549.325 154.684C538.42 154.684 529.551 163.552 529.547 174.452C529.546 178.188 530.591 181.826 532.57 184.973L533.04 185.721L531.043 193.016L538.525 191.054ZM560.486 179.591C560.9 179.791 561.18 179.926 561.3 180.126C561.448 180.373 561.448 181.563 560.953 182.952C560.458 184.34 558.084 185.607 556.942 185.778C555.918 185.931 554.622 185.995 553.198 185.542C552.335 185.268 551.228 184.903 549.81 184.29C544.239 181.884 540.474 176.484 539.762 175.464C539.712 175.392 539.677 175.342 539.658 175.316L539.653 175.31C539.338 174.89 537.231 172.078 537.231 169.168C537.231 166.431 538.576 164.996 539.195 164.335C539.237 164.29 539.276 164.249 539.311 164.21C539.856 163.615 540.5 163.467 540.896 163.467C541.292 163.467 541.689 163.47 542.035 163.488C542.078 163.49 542.122 163.49 542.168 163.489C542.514 163.487 542.946 163.485 543.372 164.508C543.536 164.902 543.776 165.485 544.029 166.101C544.54 167.346 545.105 168.722 545.204 168.921C545.353 169.218 545.452 169.565 545.254 169.962C545.224 170.022 545.197 170.078 545.17 170.131C545.022 170.435 544.912 170.659 544.66 170.953C544.56 171.069 544.458 171.194 544.355 171.319C544.151 171.568 543.946 171.817 543.768 171.995C543.471 172.291 543.161 172.613 543.508 173.208C543.854 173.803 545.047 175.749 546.814 177.325C548.713 179.019 550.364 179.735 551.2 180.098C551.364 180.168 551.496 180.226 551.593 180.274C552.187 180.572 552.534 180.522 552.881 180.126C553.227 179.729 554.366 178.39 554.763 177.795C555.159 177.201 555.555 177.3 556.1 177.498C556.645 177.696 559.566 179.134 560.161 179.431C560.277 179.49 560.385 179.542 560.486 179.591Z" fill="#FDFDFD"/>
<path d="M476.76 142.508C476.565 138.25 475.889 135.343 474.9 132.799C473.896 130.13 472.321 127.712 470.286 125.714C468.288 123.679 465.87 122.104 463.201 121.099C460.657 120.111 457.75 119.435 453.492 119.242C449.226 119.046 447.863 119 437 119C426.137 119 424.774 119.046 420.508 119.24C416.25 119.435 413.343 120.111 410.799 121.1C408.13 122.104 405.712 123.679 403.714 125.714C401.679 127.712 400.104 130.129 399.099 132.798C398.111 135.343 397.435 138.25 397.242 142.508C397.046 146.774 397 148.136 397 158.999C397 169.863 397.046 171.226 397.242 175.492C397.436 179.749 398.112 182.657 399.101 185.201C400.105 187.87 401.68 190.288 403.714 192.286C405.712 194.32 408.13 195.895 410.799 196.899C413.343 197.889 416.251 198.564 420.509 198.759C424.775 198.954 426.138 198.999 437.001 198.999C447.864 198.999 449.227 198.954 453.492 198.759C457.75 198.564 460.657 197.889 463.202 196.899C468.575 194.822 472.822 190.574 474.9 185.201C475.889 182.657 476.565 179.749 476.76 175.492C476.954 171.225 477 169.863 477 159C477 148.136 476.954 146.774 476.76 142.508V142.508ZM469.559 175.164C469.382 179.064 468.73 181.182 468.182 182.591C466.836 186.08 464.079 188.837 460.591 190.183C459.181 190.73 457.063 191.382 453.163 191.56C448.946 191.753 447.681 191.793 437 191.793C426.318 191.793 425.054 191.753 420.836 191.56C416.937 191.382 414.819 190.73 413.409 190.183C411.672 189.541 410.1 188.519 408.81 187.19C407.481 185.9 406.459 184.329 405.817 182.591C405.27 181.182 404.618 179.064 404.44 175.164C404.248 170.946 404.207 169.681 404.207 159.001C404.207 148.319 404.248 147.055 404.44 142.837C404.618 138.937 405.27 136.819 405.817 135.409C406.459 133.672 407.482 132.1 408.81 130.81C410.1 129.481 411.672 128.459 413.409 127.818C414.819 127.27 416.937 126.618 420.837 126.44C425.054 126.248 426.319 126.207 437 126.207H436.999C447.68 126.207 448.945 126.248 453.163 126.441C457.063 126.618 459.181 127.27 460.591 127.818C462.328 128.459 463.899 129.482 465.19 130.81C466.518 132.1 467.541 133.672 468.182 135.409C468.73 136.819 469.382 138.937 469.559 142.837C469.751 147.054 469.792 148.319 469.792 159C469.792 169.681 469.752 170.946 469.559 175.164Z" fill="url(#paint1_linear)"/>
<path d="M437.001 138.459C425.657 138.459 416.461 147.656 416.461 159C416.461 170.344 425.657 179.54 437.001 179.54C448.346 179.54 457.542 170.344 457.542 159C457.542 147.656 448.346 138.459 437.001 138.459V138.459ZM437.001 172.333C429.638 172.332 423.668 166.363 423.669 158.999C423.669 151.636 429.638 145.666 437.002 145.666C444.366 145.667 450.335 151.636 450.335 158.999C450.335 166.363 444.365 172.333 437.001 172.333V172.333Z" fill="url(#paint2_linear)"/>
<path d="M463.151 137.648C463.151 140.299 461.002 142.448 458.351 142.448C455.7 142.448 453.551 140.299 453.551 137.648C453.551 134.997 455.7 132.848 458.351 132.848C461.002 132.848 463.151 134.997 463.151 137.648V137.648Z" fill="url(#paint3_linear)"/>
<path d="M118.465 79.45H135.405V84.07H124.68V124H118.465V79.45ZM139.681 79.45H150.736C154.586 79.45 157.372 80.495 159.096 82.585C160.856 84.675 161.736 87.7367 161.736 91.77C161.736 95.4 160.801 98.2233 158.931 100.24C157.061 102.257 154.347 103.265 150.791 103.265H145.896V124H139.681V79.45ZM148.756 98.81C150.589 98.81 152.001 98.6083 152.991 98.205C154.017 97.8017 154.751 97.105 155.191 96.115C155.631 95.125 155.851 93.695 155.851 91.825C155.851 89.5517 155.686 87.8833 155.356 86.82C155.026 85.7567 154.366 85.005 153.376 84.565C152.422 84.125 150.901 83.905 148.811 83.905H145.896V98.81H148.756ZM165.557 125.98C166.547 126.09 167.408 126.145 168.142 126.145C169.938 126.145 171.167 125.852 171.827 125.265C172.523 124.678 172.872 123.743 172.872 122.46C172.872 121.727 172.743 120.59 172.487 119.05L163.687 79.45H169.572L173.312 98.425L175.567 112.56L177.547 98.535L180.902 79.45H186.842L178.867 119.16L178.427 121.635C177.95 124.238 177.473 126.127 176.997 127.3C176.557 128.473 175.695 129.353 174.412 129.94C173.128 130.563 171.148 130.875 168.472 130.875C167.995 130.875 167.023 130.838 165.557 130.765V125.98ZM190.975 79.45H215.505V124H209.29V83.905H197.19V124H190.975V79.45ZM222.449 79.45H246.979V124H240.764V83.905H228.664V124H222.449V79.45ZM253.924 79.45H260.139V97.985H261.899C265.272 97.985 267.967 98.37 269.984 99.14C272.037 99.91 273.577 101.23 274.604 103.1C275.631 104.97 276.144 107.592 276.144 110.965C276.144 115.548 275.026 118.867 272.789 120.92C270.552 122.973 267.014 124 262.174 124H253.924V79.45ZM280.764 79.45H286.979V124H280.764V79.45ZM262.174 119.545C264.154 119.545 265.712 119.325 266.849 118.885C268.022 118.445 268.884 117.602 269.434 116.355C270.021 115.108 270.314 113.293 270.314 110.91C270.314 108.857 270.057 107.225 269.544 106.015C269.031 104.805 268.169 103.925 266.959 103.375C265.786 102.788 264.154 102.495 262.064 102.495H260.139V119.545H262.174Z" fill="black"/>
<path d="M56.9 181.524C58.316 181.452 59.276 181.152 59.78 180.624C60.308 180.072 60.716 178.788 61.004 176.772C61.292 174.756 61.676 170.736 62.156 164.712L62.948 153.84H73.388V183H71.408V155.352H64.784L64.064 164.712L63.956 165.936C63.476 171.72 63.068 175.644 62.732 177.708C62.396 179.772 61.832 181.176 61.04 181.92C60.248 182.64 58.868 183.024 56.9 183.072V181.524ZM78.7031 153.84H80.4671V178.68L90.4391 153.84H92.0591V183H90.2951V158.16L80.3591 183H78.7031V153.84ZM97.4422 153.84H99.3862V181.488H106.514V153.84H108.494V181.488H115.334V153.84H117.314V183H97.4422V153.84ZM122.72 153.84H124.664V166.152H127.94C130.604 166.152 132.572 166.872 133.844 168.312C135.116 169.728 135.752 171.876 135.752 174.756C135.752 177.324 135.128 179.34 133.88 180.804C132.656 182.268 130.7 183 128.012 183H122.72V153.84ZM128.084 181.416C130.148 181.416 131.612 180.864 132.476 179.76C133.34 178.656 133.772 176.976 133.772 174.72C133.772 172.416 133.328 170.676 132.44 169.5C131.576 168.324 130.112 167.736 128.048 167.736H124.664V181.416H128.084ZM152.614 183.396C149.95 183.396 148.102 182.628 147.07 181.092C146.038 179.532 145.522 177.372 145.522 174.612V162.228C145.522 159.468 146.05 157.332 147.106 155.82C148.162 154.284 149.998 153.516 152.614 153.516C155.038 153.516 156.754 154.224 157.762 155.64C158.77 157.032 159.274 159.06 159.274 161.724V163.2H157.402V161.724C157.402 159.492 157.054 157.836 156.358 156.756C155.662 155.676 154.414 155.136 152.614 155.136C150.646 155.136 149.302 155.712 148.582 156.864C147.862 158.016 147.502 159.732 147.502 162.012V174.9C147.502 177.204 147.874 178.932 148.618 180.084C149.362 181.212 150.694 181.776 152.614 181.776C154.438 181.776 155.686 181.224 156.358 180.12C157.054 178.992 157.402 177.336 157.402 175.152V173.388H159.274V174.828C159.274 177.564 158.782 179.676 157.798 181.164C156.814 182.652 155.086 183.396 152.614 183.396ZM168.319 153.84H170.587L176.743 183H174.763L173.251 174.936H165.691L164.143 183H162.199L168.319 153.84ZM172.999 173.496L169.471 156.216L165.979 173.496H172.999ZM181.091 153.84H183.035L189.191 180.156L195.455 153.84H197.471L198.299 183H196.607L195.887 158.556L189.947 183H188.507L182.639 158.592L181.919 183H180.227L181.091 153.84ZM209.921 183.396C207.257 183.396 205.385 182.64 204.305 181.128C203.249 179.592 202.721 177.456 202.721 174.72V161.976C202.721 159.288 203.261 157.212 204.341 155.748C205.445 154.26 207.305 153.516 209.921 153.516C212.513 153.516 214.361 154.26 215.465 155.748C216.569 157.236 217.121 159.312 217.121 161.976V174.756C217.121 177.492 216.581 179.616 215.501 181.128C214.445 182.64 212.585 183.396 209.921 183.396ZM209.921 181.776C211.889 181.776 213.245 181.212 213.989 180.084C214.757 178.956 215.141 177.312 215.141 175.152V161.688C215.141 159.528 214.757 157.896 213.989 156.792C213.245 155.688 211.889 155.136 209.921 155.136C207.953 155.136 206.585 155.688 205.817 156.792C205.073 157.896 204.701 159.528 204.701 161.688V175.152C204.701 177.336 205.073 178.992 205.817 180.12C206.585 181.224 207.953 181.776 209.921 181.776ZM221.859 153.84H231.939V155.424H223.839V167.124H230.499V168.636H223.839V181.452H232.047V183H221.859V153.84ZM242.812 153.84H244.792V166.98H255.016V153.84H256.96V183H255.016V168.492H244.792V183H242.812V153.84ZM261.892 184.8C263.476 184.824 264.616 184.692 265.312 184.404C266.008 184.116 266.476 183.612 266.716 182.892C266.956 182.148 267.172 180.876 267.364 179.076L260.848 153.84H262.792L266.104 167.304L268.336 176.772L270.28 167.232L273.196 153.84H275.176L269.38 179.256C268.9 181.512 268.48 183.072 268.12 183.936C267.76 184.8 267.124 185.424 266.212 185.808C265.324 186.192 263.872 186.372 261.856 186.348L261.892 184.8ZM284.182 167.772L277.378 153.84H279.286L285.838 167.664H286.09V153.84H287.89V167.664H288.142L294.694 153.84H296.602L289.798 167.772L297.286 183H295.342L288.25 168.168H287.89V183H286.09V168.168H285.694L278.638 183H276.694L284.182 167.772ZM300.715 153.84H302.695V166.98H312.919V153.84H314.863V183H312.919V168.492H302.695V183H300.715V153.84ZM326.851 183.396C324.187 183.396 322.315 182.64 321.235 181.128C320.179 179.592 319.651 177.456 319.651 174.72V161.976C319.651 159.288 320.191 157.212 321.271 155.748C322.375 154.26 324.235 153.516 326.851 153.516C329.443 153.516 331.291 154.26 332.395 155.748C333.499 157.236 334.051 159.312 334.051 161.976V174.756C334.051 177.492 333.511 179.616 332.431 181.128C331.375 182.64 329.515 183.396 326.851 183.396ZM326.851 181.776C328.819 181.776 330.175 181.212 330.919 180.084C331.687 178.956 332.071 177.312 332.071 175.152V161.688C332.071 159.528 331.687 157.896 330.919 156.792C330.175 155.688 328.819 155.136 326.851 155.136C324.883 155.136 323.515 155.688 322.747 156.792C322.003 157.896 321.631 159.528 321.631 161.688V175.152C321.631 177.336 322.003 178.992 322.747 180.12C323.515 181.224 324.883 181.776 326.851 181.776ZM338.789 153.84H348.869V155.424H340.769V167.124H347.429V168.636H340.769V181.452H348.977V183H338.789V153.84Z" fill="#7A7A7A"/>
<defs>
<linearGradient id="paint0_linear" x1="493.005" y1="31.336" x2="473.005" y2="78" gradientUnits="userSpaceOnUse">
<stop stop-color="#37AEE2"/>
<stop offset="1" stop-color="#1E96C8"/>
</linearGradient>
<linearGradient id="paint1_linear" x1="403.713" y1="192.286" x2="470.287" y2="125.713" gradientUnits="userSpaceOnUse">
<stop stop-color="#FFD600"/>
<stop offset="0.5" stop-color="#FF0100"/>
<stop offset="1" stop-color="#D800B9"/>
</linearGradient>
<linearGradient id="paint2_linear" x1="422.477" y1="173.524" x2="451.526" y2="144.475" gradientUnits="userSpaceOnUse">
<stop stop-color="#FF6400"/>
<stop offset="0.5" stop-color="#FF0100"/>
<stop offset="1" stop-color="#FD0056"/>
</linearGradient>
<linearGradient id="paint3_linear" x1="454.957" y1="141.042" x2="461.745" y2="134.254" gradientUnits="userSpaceOnUse">
<stop stop-color="#F30072"/>
<stop offset="1" stop-color="#E50097"/>
</linearGradient>
</defs>
</svg>
