<svg width="30" height="30" viewBox="0 0 30 30" fill="none" xmlns="http://www.w3.org/2000/svg">
<path fill-rule="evenodd" clip-rule="evenodd" d="M15 30C23.2843 30 30 23.2843 30 15C30 6.71573 23.2843 0 15 0C6.71573 0 0 6.71573 0 15C0 23.2843 6.71573 30 15 30ZM14.7975 19.3675L21.9225 12.2425C22.4325 11.7325 22.4325 10.9075 21.9225 10.3825C21.4125 9.8725 20.5725 9.8725 20.0625 10.3825L13.8675 16.5775L11.2425 13.9525C10.7325 13.4425 9.8925 13.4425 9.3825 13.9525C8.8725 14.4625 8.8725 15.2875 9.3825 15.8125L12.9525 19.3675C13.2075 19.6225 13.5375 19.7425 13.8675 19.7425C14.2125 19.7425 14.5425 19.6225 14.7975 19.3675Z" fill="white"/>
</svg>
