<svg width="45" height="45" viewBox="0 0 45 45" fill="none" xmlns="http://www.w3.org/2000/svg">
<path fill-rule="evenodd" clip-rule="evenodd" d="M22.5 0C10.0736 0 0 10.0736 0 22.5C0 34.9264 10.0736 45 22.5 45C34.9264 45 45 34.9264 45 22.5C45 10.0736 34.9264 0 22.5 0ZM17.5531 10.5725C18.8331 10.5143 19.2421 10.5 22.5012 10.5H22.4974C25.7575 10.5 26.165 10.5143 27.445 10.5725C28.7225 10.631 29.595 10.8333 30.36 11.13C31.15 11.4363 31.8175 11.8463 32.485 12.5138C33.1525 13.1808 33.5625 13.8503 33.87 14.6395C34.165 15.4026 34.3675 16.2746 34.4275 17.5521C34.485 18.8321 34.5 19.2411 34.5 22.5001C34.5 25.7592 34.485 26.1672 34.4275 27.4472C34.3675 28.7242 34.165 29.5964 33.87 30.3597C33.5625 31.1487 33.1525 31.8182 32.485 32.4852C31.8183 33.1527 31.1498 33.5637 30.3608 33.8702C29.5972 34.167 28.7242 34.3692 27.4467 34.4277C26.1667 34.486 25.759 34.5003 22.4997 34.5003C19.2409 34.5003 18.8321 34.486 17.5521 34.4277C16.2749 34.3692 15.4026 34.167 14.6391 33.8702C13.8503 33.5637 13.1808 33.1527 12.5141 32.4852C11.8468 31.8182 11.4368 31.1487 11.1301 30.3595C10.8336 29.5964 10.6313 28.7244 10.5725 27.4469C10.5145 26.1669 10.5 25.7592 10.5 22.5001C10.5 19.2411 10.515 18.8318 10.5723 17.5518C10.6298 16.2748 10.8323 15.4026 11.1298 14.6393C11.4373 13.8503 11.8473 13.1808 12.5148 12.5138C13.1818 11.8465 13.8513 11.4365 14.6406 11.13C15.4036 10.8333 16.2756 10.631 17.5531 10.5725Z" fill="white"/>
<path fill-rule="evenodd" clip-rule="evenodd" d="M21.4252 12.6624C21.6342 12.6621 21.859 12.6622 22.1017 12.6623L22.5017 12.6624C25.7057 12.6624 26.0855 12.6739 27.3507 12.7314C28.5207 12.7849 29.1557 12.9804 29.5787 13.1447C30.1387 13.3622 30.538 13.6222 30.9578 14.0422C31.3778 14.4622 31.6378 14.8622 31.8558 15.4222C32.02 15.8447 32.2158 16.4797 32.269 17.6497C32.3265 18.9147 32.339 19.2947 32.339 22.4973C32.339 25.6998 32.3265 26.0798 32.269 27.3448C32.2155 28.5148 32.02 29.1498 31.8558 29.5723C31.6383 30.1324 31.3778 30.5311 30.9578 30.9509C30.5377 31.3709 30.139 31.6309 29.5787 31.8484C29.1562 32.0134 28.5207 32.2084 27.3507 32.2619C26.0857 32.3194 25.7057 32.3319 22.5017 32.3319C19.2974 32.3319 18.9176 32.3194 17.6526 32.2619C16.4826 32.2079 15.8476 32.0124 15.4243 31.8481C14.8643 31.6306 14.4643 31.3706 14.0443 30.9506C13.6243 30.5306 13.3643 30.1316 13.1463 29.5714C12.9821 29.1488 12.7863 28.5138 12.7331 27.3438C12.6756 26.0788 12.6641 25.6988 12.6641 22.4943C12.6641 19.2897 12.6756 18.9117 12.7331 17.6467C12.7866 16.4767 12.9821 15.8417 13.1463 15.4187C13.3638 14.8587 13.6243 14.4587 14.0443 14.0387C14.4643 13.6187 14.8643 13.3587 15.4243 13.1407C15.8473 12.9757 16.4826 12.7807 17.6526 12.7269C18.7596 12.6769 19.1886 12.6619 21.4252 12.6594V12.6624ZM28.9073 14.655C28.1123 14.655 27.4673 15.2992 27.4673 16.0945C27.4673 16.8895 28.1123 17.5345 28.9073 17.5345C29.7023 17.5345 30.3473 16.8895 30.3473 16.0945C30.3473 15.2995 29.7023 14.6545 28.9073 14.6545V14.655ZM16.339 22.5C16.339 19.0968 19.0981 16.3376 22.5013 16.3375C25.9046 16.3375 28.6631 19.0967 28.6631 22.5C28.6631 25.9033 25.9048 28.6613 22.5015 28.6613C19.0983 28.6613 16.339 25.9033 16.339 22.5Z" fill="white"/>
<path d="M22.5 18.5C24.7091 18.5 26.5001 20.2908 26.5001 22.5C26.5001 24.7091 24.7091 26.5001 22.5 26.5001C20.2908 26.5001 18.5 24.7091 18.5 22.5C18.5 20.2908 20.2908 18.5 22.5 18.5V18.5Z" fill="white"/>
</svg>
