<svg width="41" height="176" viewBox="0 0 41 176" fill="none" xmlns="http://www.w3.org/2000/svg">
<path d="M3.36 174.544L3.36 167.812L28.044 162.752L3.36 157.516L3.36 150.96L39 150.3L39 155.14L14.228 155.668L39 160.728V164.644L14.14 169.792L39 170.276V175.16L3.36 174.544ZM3.36 139.713L3.36 132.761L39 125.633V131.661L30.772 133.069L30.772 139.273L39 140.725V146.841L3.36 139.713ZM26.636 133.773L11.676 136.193L26.636 138.613L26.636 133.773ZM3.36 122.048L3.36 111.576C3.36 105.504 6.73333 102.468 13.48 102.468C19.9333 102.468 23.16 105.651 23.16 112.016V115.58H39V122.048H3.36ZM18.584 113.072C18.584 111.312 18.2173 110.124 17.484 109.508C16.7213 108.892 15.372 108.584 13.436 108.584C12.028 108.584 10.9573 108.687 10.224 108.892C9.46133 109.098 8.88933 109.523 8.508 110.168C8.12667 110.784 7.936 111.752 7.936 113.072V115.58H18.584V113.072ZM3.36 94.1229L3.36 87.1709L39 80.0429V86.0709L30.772 87.4789V93.6829L39 95.1349V101.251L3.36 94.1229ZM26.636 88.1829L11.676 90.6029L26.636 93.0229V88.1829ZM34.776 66.3386C34.864 67.5706 34.908 68.2892 34.908 68.4946C34.908 71.1932 34.1747 73.3052 32.708 74.8306C31.212 76.3266 28.924 77.0746 25.844 77.0746H15.988C13.0253 77.0746 10.7667 76.3119 9.212 74.7866C7.65733 73.2319 6.88 71.1052 6.88 68.4066C6.88 67.7319 6.90933 67.0426 6.968 66.3386H0.719997L0.719997 60.6626H6.968C6.90933 59.9586 6.88 59.2986 6.88 58.6826C6.88 55.9252 7.65733 53.7839 9.212 52.2586C10.7667 50.7039 13.0253 49.9266 15.988 49.9266H25.844C28.8947 49.9266 31.168 50.6452 32.664 52.0826C34.16 53.5199 34.908 55.4119 34.908 57.7586C34.908 58.7266 34.864 59.6946 34.776 60.6626H40.408V66.3386H34.776ZM30.948 67.3946C30.948 67.0426 30.9187 66.6906 30.86 66.3386H10.84C10.7813 66.8666 10.752 67.2919 10.752 67.6146C10.752 68.9052 11.1627 69.8439 11.984 70.4306C12.776 70.9879 14.096 71.2666 15.944 71.2666H25.888C27.7653 71.2666 29.0853 71.0026 29.848 70.4746C30.5813 69.9466 30.948 68.9199 30.948 67.3946ZM30.948 59.4306C30.948 58.0226 30.5813 57.0546 29.848 56.5266C29.0853 55.9692 27.78 55.6906 25.932 55.6906H15.944C14.0373 55.6906 12.7027 55.9546 11.94 56.4826C11.148 57.0106 10.752 57.9492 10.752 59.2986C10.752 59.6799 10.7813 60.1346 10.84 60.6626H30.86C30.9187 60.2519 30.948 59.8412 30.948 59.4306ZM39.484 35.4104C39.484 39.1064 38.5013 41.7464 36.536 43.3304C34.5413 44.9144 31.6373 45.7064 27.824 45.7064H14.448C10.664 45.7064 7.804 44.9144 5.868 43.3304C3.932 41.7464 2.964 39.1064 2.964 35.4104C2.964 31.7437 3.932 29.1184 5.868 27.5344C7.804 25.9504 10.664 25.1584 14.448 25.1584H27.824C31.608 25.1584 34.4973 25.965 36.492 27.5784C38.4867 29.1624 39.484 31.773 39.484 35.4104ZM34.688 35.4104C34.688 33.973 34.2333 33.005 33.324 32.5064C32.4147 32.0077 31.0947 31.7584 29.364 31.7584H12.952C11.2213 31.7584 9.916 32.0077 9.036 32.5064C8.156 32.9757 7.716 33.9437 7.716 35.4104C7.716 36.877 8.17067 37.8597 9.08 38.3584C9.96 38.857 11.2507 39.1064 12.952 39.1064H29.364C31.0947 39.1064 32.4147 38.857 33.324 38.3584C34.2333 37.8597 34.688 36.877 34.688 35.4104ZM3.36 20.2534L3.36 13.7854H18.232L18.232 6.52539H3.36L3.36 0.0133905H39V6.52539H22.896L22.896 13.7854H39V20.2534H3.36Z" fill="black"/>
</svg>
