<svg width="45" height="45" viewBox="0 0 45 45" fill="none" xmlns="http://www.w3.org/2000/svg">
<circle cx="22.5" cy="22.5" r="22.5" fill="white"/>
<path d="M28.9189 24.32C28.6599 24.571 28.5409 24.934 28.5999 25.29L29.4889 30.21C29.5639 30.627 29.3879 31.049 29.0389 31.29C28.6969 31.54 28.2419 31.57 27.8689 31.37L23.4399 29.06C23.2859 28.978 23.1149 28.934 22.9399 28.929H22.6689C22.5749 28.943 22.4829 28.973 22.3989 29.019L17.9689 31.34C17.7499 31.45 17.5019 31.489 17.2589 31.45C16.6669 31.338 16.2719 30.774 16.3689 30.179L17.2589 25.259C17.3179 24.9 17.1989 24.535 16.9399 24.28L13.3289 20.78C13.0269 20.487 12.9219 20.047 13.0599 19.65C13.1939 19.254 13.5359 18.965 13.9489 18.9L18.9189 18.179C19.2969 18.14 19.6289 17.91 19.7989 17.57L21.9889 13.08C22.0409 12.98 22.1079 12.888 22.1889 12.81L22.2789 12.74C22.3259 12.688 22.3799 12.645 22.4399 12.61L22.5489 12.57L22.7189 12.5H23.1399C23.5159 12.539 23.8469 12.764 24.0199 13.1L26.2389 17.57C26.3989 17.897 26.7099 18.124 27.0689 18.179L32.0389 18.9C32.4589 18.96 32.8099 19.25 32.9489 19.65C33.0799 20.051 32.9669 20.491 32.6589 20.78L28.9189 24.32Z" fill="#200E32"/>
</svg>
