<svg width="45" height="45" viewBox="0 0 45 45" fill="none" xmlns="http://www.w3.org/2000/svg">
<circle cx="22.5" cy="22.5" r="22.5" fill="white"/>
<path fill-rule="evenodd" clip-rule="evenodd" d="M19.9257 26.39H25.3119C25.7178 26.39 26.0545 26.05 26.0545 25.64C26.0545 25.23 25.7178 24.9 25.3119 24.9H19.9257C19.5198 24.9 19.1832 25.23 19.1832 25.64C19.1832 26.05 19.5198 26.39 19.9257 26.39ZM23.2723 19.9H19.9257C19.5198 19.9 19.1832 20.24 19.1832 20.65C19.1832 21.06 19.5198 21.39 19.9257 21.39H23.2723C23.6782 21.39 24.0149 21.06 24.0149 20.65C24.0149 20.24 23.6782 19.9 23.2723 19.9ZM30.3381 19.0256C30.5708 19.0229 30.8242 19.02 31.0545 19.02C31.302 19.02 31.5 19.22 31.5 19.47V27.51C31.5 29.99 29.5099 32 27.0545 32H19.1733C16.599 32 14.5 29.89 14.5 27.29V16.51C14.5 14.03 16.5 12 18.9653 12H24.2525C24.5099 12 24.7079 12.21 24.7079 12.46V15.68C24.7079 17.51 26.203 19.01 28.0149 19.02C28.4381 19.02 28.8112 19.0232 29.1377 19.0259C29.3917 19.0281 29.6175 19.03 29.8168 19.03C29.9578 19.03 30.1405 19.0279 30.3381 19.0256ZM30.6111 17.566C29.7972 17.569 28.8378 17.566 28.1477 17.559C27.0527 17.559 26.1507 16.648 26.1507 15.542V12.906C26.1507 12.475 26.6685 12.261 26.9646 12.572C27.5004 13.1348 28.2368 13.9083 28.9699 14.6784C29.7009 15.4463 30.4286 16.2107 30.9507 16.759C31.2398 17.062 31.0279 17.565 30.6111 17.566Z" fill="#1C1C1C"/>
</svg>
