<svg width="45" height="45" viewBox="0 0 45 45" fill="none" xmlns="http://www.w3.org/2000/svg">
<path fill-rule="evenodd" clip-rule="evenodd" d="M45 22.5C45 34.9264 34.9264 45 22.5 45C10.0736 45 0 34.9264 0 22.5C0 10.0736 10.0736 0 22.5 0C34.9264 0 45 10.0736 45 22.5ZM15.067 20.4389C12.8131 21.423 10.4973 22.4342 8.37961 23.6006C7.27385 24.4102 8.74348 24.983 10.1223 25.5202C10.3415 25.6056 10.5583 25.69 10.7622 25.7744C10.9319 25.8266 11.1044 25.8816 11.2793 25.9373C12.8127 26.4258 14.5225 26.9706 16.0113 26.1511C18.4568 24.7463 20.7647 23.1221 23.0708 21.4992C23.8264 20.9675 24.5817 20.4359 25.3417 19.9122C25.3773 19.8894 25.4174 19.8634 25.4614 19.835C26.1087 19.4152 27.5647 18.4715 27.0262 19.772C25.7527 21.1647 24.3885 22.3975 23.017 23.6372C22.0927 24.4726 21.1649 25.3111 20.2593 26.2036C19.4706 26.8445 18.6515 28.1332 19.5347 29.0307C21.569 30.4548 23.635 31.8443 25.6999 33.2332C26.3718 33.685 27.0437 34.1369 27.7142 34.5899C28.8506 35.4972 30.6267 34.7633 30.8766 33.3455C30.9877 32.6933 31.0992 32.0411 31.2108 31.3889C31.8273 27.7845 32.444 24.1788 32.9887 20.5627C33.0628 19.9954 33.1467 19.4282 33.2307 18.8607C33.4342 17.4853 33.6381 16.1082 33.7017 14.7254C33.5377 13.3454 31.8644 13.6489 30.9333 13.9592C26.1472 15.7804 21.4088 17.7366 16.6893 19.7273C16.1546 19.9641 15.6127 20.2007 15.067 20.4389Z" fill="white"/>
</svg>
