<svg width="45" height="45" viewBox="0 0 45 45" fill="none" xmlns="http://www.w3.org/2000/svg">
<path fill-rule="evenodd" clip-rule="evenodd" d="M22.5 0C10.0736 0 0 10.0736 0 22.5C0 34.9264 10.0736 45 22.5 45C34.9264 45 45 34.9264 45 22.5C45 10.0736 34.9264 0 22.5 0ZM24.332 29.6027C24.1102 29.8366 23.677 29.8838 23.677 29.8838H22.2426C22.2426 29.8838 19.0779 30.0705 16.2901 27.2221C13.2498 24.1146 10.5652 17.9489 10.5652 17.9489C10.5652 17.9489 10.4103 17.5445 10.5782 17.3498C10.7671 17.1297 11.2825 17.1159 11.2825 17.1159L14.7112 17.094C14.7112 17.094 15.0341 17.1458 15.2653 17.3129C15.4566 17.4512 15.5635 17.7081 15.5635 17.7081C15.5635 17.7081 16.1175 19.0839 16.8512 20.3283C18.2844 22.7584 18.9512 23.2896 19.4371 23.0292C20.1461 22.6501 19.9337 19.5943 19.9337 19.5943C19.9337 19.5943 19.9466 18.4859 19.5768 17.9916C19.2904 17.609 18.7504 17.4973 18.5121 17.4661C18.3185 17.4408 18.6354 17.0006 19.0462 16.8036C19.6637 16.5075 20.753 16.4902 22.0407 16.5029C23.0443 16.5132 23.3331 16.5743 23.7252 16.6676C24.6351 16.8832 24.6067 17.5739 24.5454 19.0647C24.5271 19.5105 24.5058 20.0279 24.5058 20.6256C24.5058 20.7599 24.5018 20.903 24.4977 21.0503C24.4764 21.8141 24.452 22.6886 24.9647 23.0142C25.2277 23.1801 25.8698 23.0384 27.4768 20.3606C28.2386 19.0908 28.8091 17.5987 28.8091 17.5987C28.8091 17.5987 28.9347 17.3325 29.1284 17.2184C29.3267 17.102 29.5944 17.1378 29.5944 17.1378L33.2028 17.1159C33.2028 17.1159 34.2874 16.988 34.4623 17.4696C34.6466 17.9731 34.0573 19.1507 32.583 21.0796C31.1844 22.9097 30.5038 23.5836 30.5663 24.1795C30.612 24.615 31.0544 25.0088 31.9033 25.7819C33.6756 27.397 34.1506 28.2468 34.2647 28.4509C34.2742 28.4678 34.2812 28.4803 34.2862 28.4885C35.0809 29.7824 33.4047 29.8838 33.4047 29.8838L30.1989 29.9276C30.1989 29.9276 29.511 30.0613 28.6048 29.4506C28.1301 29.131 27.6663 28.6089 27.2244 28.1117C26.5497 27.3523 25.9264 26.6508 25.3944 26.8166C24.5011 27.0954 24.5281 28.9839 24.5281 28.9839C24.5281 28.9839 24.5351 29.3884 24.332 29.6027Z" fill="white"/>
</svg>
