<svg width="45" height="45" viewBox="0 0 45 45" fill="none" xmlns="http://www.w3.org/2000/svg">
<path fill-rule="evenodd" clip-rule="evenodd" d="M22.5 0C10.0736 0 0 10.0736 0 22.5C0 34.9264 10.0736 45 22.5 45C34.9264 45 45 34.9264 45 22.5C45 10.0736 34.9264 0 22.5 0ZM31.8765 14.765C32.9092 15.0484 33.7225 15.8833 33.9985 16.9436C34.5 18.8654 34.5 22.875 34.5 22.875C34.5 22.875 34.5 26.8845 33.9985 28.8064C33.7225 29.8667 32.9092 30.7016 31.8765 30.9851C30.0051 31.5 22.5 31.5 22.5 31.5C22.5 31.5 14.995 31.5 13.1234 30.9851C12.0907 30.7016 11.2775 29.8667 11.0015 28.8064C10.5 26.8845 10.5 22.875 10.5 22.875C10.5 22.875 10.5 18.8654 11.0015 16.9436C11.2775 15.8833 12.0907 15.0484 13.1234 14.765C14.995 14.25 22.5 14.25 22.5 14.25C22.5 14.25 30.0051 14.25 31.8765 14.765Z" fill="white"/>
<path d="M20.25 27V19.5L26.25 23.2501L20.25 27Z" fill="white"/>
</svg>
